<svg width="16" height="15" viewBox="0 0 16 15" fill="none" xmlns="http://www.w3.org/2000/svg">
<path fill-rule="evenodd" clip-rule="evenodd" d="M3.48399 14.1176C3.17813 14.1176 2.89015 14.0243 2.64922 13.8462C1.85304 13.258 0 11.5104 0 7.99082C0 6.05098 0.735948 4.25253 2.07232 2.92631C3.37764 1.62931 5.12905 0.933682 7.04138 0.941223C12.146 0.941223 15.5961 6.00197 15.981 10.8949C16.0459 11.7188 15.9443 12.4634 15.6808 13.11C15.4361 13.7086 15.1255 14.0356 14.7321 14.1101L3.48399 14.1176ZM13.2715 5.6551C13.9999 6.7928 14.527 8.09734 14.8168 9.43769L8.10483 8.49888C7.34912 8.38105 6.58682 7.88714 6.58682 7.04918C6.58682 6.28003 7.23525 5.6551 8.03143 5.6551H13.2715ZM12.5883 4.71157H8.03143C6.7167 4.71157 5.64572 5.76066 5.64572 7.04918C5.64572 8.25758 6.57553 9.21524 7.96743 9.43204L14.9862 10.4133C15.0098 10.599 15.0295 10.7837 15.0436 10.9685C15.0973 11.6433 15.0182 12.2438 14.8112 12.7528C14.702 13.0186 14.606 13.1364 14.5608 13.175H3.48399C3.37952 13.175 3.28635 13.1458 3.20824 13.0883C2.52688 12.585 0.941109 11.0816 0.941109 7.99082C0.941109 6.30454 1.57824 4.74361 2.73486 3.59555C3.84726 2.49083 5.35209 1.88381 6.97927 1.88381H7.03762C9.30287 1.88381 11.2039 3.02057 12.5883 4.71157Z" fill="#445058"></path>
</svg>
