<svg width="16" height="17" viewBox="0 0 16 17" fill="none" xmlns="http://www.w3.org/2000/svg">
<path fill-rule="evenodd" clip-rule="evenodd" d="M0 8.00293C0 3.58505 3.58212 0.00292969 8 0.00292969C12.4179 0.00292969 16 3.58505 16 8.00293C16 12.4208 12.4179 16.0029 8 16.0029C3.58212 16.0029 0 12.4208 0 8.00293ZM0.941176 8.00276C0.941176 11.8945 4.10823 15.0616 8 15.0616C11.8918 15.0616 15.0588 11.8945 15.0588 8.00276C15.0588 4.11099 11.8918 0.943934 8 0.943934C4.10823 0.943934 0.941176 4.11099 0.941176 8.00276ZM11.7647 3.76746C12.0246 3.76746 12.2353 3.55677 12.2353 3.29688C12.2353 3.03698 12.0246 2.82629 11.7647 2.82629C11.5048 2.82629 11.2941 3.03698 11.2941 3.29688C11.2941 3.55677 11.5048 3.76746 11.7647 3.76746ZM12.2353 12.7086C12.2353 12.9685 12.0246 13.1792 11.7647 13.1792C11.5048 13.1792 11.2941 12.9685 11.2941 12.7086C11.2941 12.4487 11.5048 12.2381 11.7647 12.2381C12.0246 12.2381 12.2353 12.4487 12.2353 12.7086ZM10.8235 11.2969C11.0834 11.2969 11.2941 11.0862 11.2941 10.8263C11.2941 10.5664 11.0834 10.3557 10.8235 10.3557C10.5636 10.3557 10.3529 10.5664 10.3529 10.8263C10.3529 11.0862 10.5636 11.2969 10.8235 11.2969ZM10.3529 7.06158C10.3529 7.32148 10.1423 7.53217 9.88235 7.53217C9.62245 7.53217 9.41177 7.32148 9.41177 7.06158C9.41177 6.80168 9.62245 6.59099 9.88235 6.59099C10.1423 6.59099 10.3529 6.80168 10.3529 7.06158ZM10.8235 5.64982C11.0834 5.64982 11.2941 5.43913 11.2941 5.17923C11.2941 4.91933 11.0834 4.70864 10.8235 4.70864C10.5636 4.70864 10.3529 4.91933 10.3529 5.17923C10.3529 5.43913 10.5636 5.64982 10.8235 5.64982ZM10.3529 8.94393C10.3529 9.20383 10.1423 9.41452 9.88235 9.41452C9.62245 9.41452 9.41177 9.20383 9.41177 8.94393C9.41177 8.68404 9.62245 8.47335 9.88235 8.47335C10.1423 8.47335 10.3529 8.68404 10.3529 8.94393ZM4.23529 3.76746C4.49519 3.76746 4.70588 3.55677 4.70588 3.29688C4.70588 3.03698 4.49519 2.82629 4.23529 2.82629C3.9754 2.82629 3.76471 3.03698 3.76471 3.29688C3.76471 3.55677 3.9754 3.76746 4.23529 3.76746ZM4.70588 12.7086C4.70588 12.9685 4.49519 13.1792 4.23529 13.1792C3.9754 13.1792 3.76471 12.9685 3.76471 12.7086C3.76471 12.4487 3.9754 12.2381 4.23529 12.2381C4.49519 12.2381 4.70588 12.4487 4.70588 12.7086ZM5.17647 11.2969C5.43637 11.2969 5.64706 11.0862 5.64706 10.8263C5.64706 10.5664 5.43637 10.3557 5.17647 10.3557C4.91657 10.3557 4.70588 10.5664 4.70588 10.8263C4.70588 11.0862 4.91657 11.2969 5.17647 11.2969ZM6.58824 7.06158C6.58824 7.32148 6.37755 7.53217 6.11765 7.53217C5.85775 7.53217 5.64706 7.32148 5.64706 7.06158C5.64706 6.80168 5.85775 6.59099 6.11765 6.59099C6.37755 6.59099 6.58824 6.80168 6.58824 7.06158ZM5.17647 5.64982C5.43637 5.64982 5.64706 5.43913 5.64706 5.17923C5.64706 4.91933 5.43637 4.70864 5.17647 4.70864C4.91657 4.70864 4.70588 4.91933 4.70588 5.17923C4.70588 5.43913 4.91657 5.64982 5.17647 5.64982ZM6.58824 8.94393C6.58824 9.20383 6.37755 9.41452 6.11765 9.41452C5.85775 9.41452 5.64706 9.20383 5.64706 8.94393C5.64706 8.68404 5.85775 8.47335 6.11765 8.47335C6.37755 8.47335 6.58824 8.68404 6.58824 8.94393Z" fill="#131314"></path>
</svg>
