<svg width="56" height="125" viewBox="0 0 56 125" fill="none" xmlns="http://www.w3.org/2000/svg">
<path d="M42.6064 0.739258H13.1038C5.9057 0.739258 0.0612335 6.48881 0.0612335 13.5475V111.665C0.0612335 118.736 5.9057 124.492 13.1038 124.492H42.5858C49.7811 124.492 55.6558 118.736 55.6558 111.665V13.5475C55.6558 6.48881 49.799 0.739258 42.6064 0.739258Z" fill="white"></path>
<path d="M35.2875 23.426L35.3191 23.8444C36.2178 24.3586 36.674 24.7784 37.581 25.352C39.9872 26.8393 42.9514 29.4833 42.5776 38.5935C43.2509 40.5802 43.5491 44.4861 44.173 45.7373C45.4263 48.1774 46.2618 49.7646 46.6287 52.0685C46.6287 52.0685 46.9901 55.6546 47.4601 55.9137C49.9488 56.4657 49.2301 56.7059 49.5929 57.1243C49.979 57.6156 51.4151 57.5927 51.4151 58.9072C51.9139 59.5618 52.2822 60.2434 52.5639 60.9506V13.5479C52.5639 8.14518 48.0895 3.75879 42.6064 3.75879H33.0736C34.6059 4.29325 35.4688 4.9249 35.9732 5.92634C37.2045 6.03027 38.668 8.73903 36.3882 12.7421C37.3982 13.4021 36.6108 14.3887 35.8852 15.5346C35.6736 15.9017 35.4414 16.5536 34.7666 16.5104C33.9023 18.2987 32.8551 20.0316 32.0663 20.1423C31.8272 20.4325 31.6527 21.2018 32.0127 21.5635C33.1739 22.0737 34.5866 22.7741 35.2875 23.426Z" fill="#DC1931"></path>
<path d="M52.5639 67.3729C51.2708 70.5959 48.051 72.8728 44.2898 72.8728C39.3675 72.8728 35.4001 68.9655 35.4001 64.1459C35.4001 60.0294 38.2818 56.577 42.1928 55.6552C41.169 53.1367 39.006 49.054 38.3629 47.7138C37.7541 46.3844 36.2892 38.0826 35.9732 36.4414C35.9017 36.0824 32.1392 38.586 32.1309 38.7399C31.911 38.9504 29.3083 45.6272 29.1984 45.9876C29.1462 46.2157 29.1393 47.1078 29.1393 47.1078C29.1393 47.1078 30.42 47.263 31.1566 49.4562C31.8849 51.6467 34.1084 59.6448 34.1084 59.6448C34.1084 59.6448 33.5079 60.2562 33.4818 60.2184C36.2892 69.4501 35.3081 73.4235 36.5682 76.1309C38.1513 79.9464 38.5787 79.447 39.9377 82.6538C40.9121 84.9887 41.999 94.1812 42.3618 94.5888C43.8776 96.4757 44.6939 97.9508 44.6939 99.0157C44.6939 100.087 43.4103 103.252 43.8776 105.096C44.162 106.181 44.3091 108.613 44.8244 109.075C44.8244 109.075 45.2957 109.987 45.0649 110.393C44.9975 110.534 44.8629 110.746 44.9233 110.912C45.7602 113.811 48.4578 118.754 44.0878 121.343H44.1813C48.9511 120.618 52.5639 116.599 52.5639 111.665V67.3729Z" fill="#DC1931"></path>
<path d="M41.3381 109.784C39.7357 108.381 40.8062 107.787 40.7416 107.232C39.6849 102.946 36.2192 100.354 38.0125 98.9385C37.57 97.5241 36.6699 95.7466 36.7029 95.7493C31.3009 92.7031 26.7001 87.7539 25.9195 87.0291C24.9713 86.0169 23.358 85.0019 23.0543 84.18C21.7571 83.0098 15.389 74.1385 13.9063 70.8724L11.3228 70.5133C10.1465 65.7963 6.22177 61.8445 6.12557 57.1153C6.08847 55.327 6.95009 51.498 7.27165 50.7341C7.58497 49.9594 9.08835 48.6866 9.08835 48.6866V47.422C3.45138 47.5799 5.07294 47.0144 4.10138 44.8617C3.4184 43.3717 3.90761 43.0437 4.1536 42.0099C4.90941 38.9583 7.42282 34.2534 8.46171 32.1155C8.77915 31.0358 9.86614 28.435 9.86614 28.435C14.0684 20.032 15.6364 20.6502 20.6261 20.1764L20.8721 19.8282C25.8728 19.6163 25.0538 19.2452 25.7601 14.5146C25.0304 14.8223 24.8147 13.034 24.8147 13.034C24.4162 10.3415 25.5719 10.8516 26.1215 10.7976C26.2383 6.37075 26.7001 4.97791 29.9514 3.75781H13.1093C7.59871 3.75781 3.13531 8.14556 3.13531 13.5536V111.664C3.13531 117.078 7.59871 121.464 13.1093 121.464H42.6064C39.23 119.673 41.2226 116.261 41.3381 109.784Z" fill="#02428C"></path>
<path fill-rule="evenodd" clip-rule="evenodd" d="M9.41266 115.298H11.5193V109.701C11.5193 106.964 11.4451 104.351 11.2692 101.066L13.9503 115.298H17.0092V97.5352H14.9026V100.819C14.9026 104.038 15.1466 107.758 15.3596 111.006L15.3596 111.006L15.3596 111.006L15.3596 111.006L15.3596 111.006L15.3596 111.006C15.3837 111.373 15.4074 111.735 15.4303 112.089L12.7492 97.5352H9.41266V115.298ZM29.9418 99.5259H30.0669C30.1148 100.042 30.1712 100.647 30.2307 101.284L30.232 101.298L30.2324 101.302C30.4219 103.332 30.6421 105.691 30.7182 106.616L30.9945 109.675H29.1159L29.3894 106.616C29.4911 105.421 29.792 101.665 29.9418 99.5259ZM31.1456 111.69H28.9648L28.6624 115.298H26.2315L28.4123 97.5352H31.8712L33.9765 115.298H31.4452L31.1456 111.69ZM21.0947 105.645V99.7742H22.0209C22.8221 99.7742 23.0749 100.147 23.0749 100.969V104.377C23.0749 105.346 22.8482 105.645 21.9962 105.645H21.0947ZM21.0947 107.585V113.059H22.0209C22.8482 113.059 23.0749 112.635 23.0749 111.79V108.779C23.0749 107.909 22.7987 107.585 21.9962 107.585H21.0947ZM18.6885 97.5352V115.298H22.1968C24.1509 115.298 25.4812 114.203 25.4812 111.766V109.179C25.4812 107.836 24.9796 107.039 24.276 106.566C24.9796 106.168 25.4812 105.346 25.4812 103.73V101.093C25.4812 98.6054 24.2265 97.5352 22.1968 97.5352H18.6885Z" fill="white"></path>
</svg>
