<svg width="16" height="16" viewBox="0 0 16 16" fill="none" xmlns="http://www.w3.org/2000/svg">
<path fill-rule="evenodd" clip-rule="evenodd" d="M9.10023 0.942118L1.07859 8.91953C0.990118 9.00706 0.941176 9.12471 0.941176 9.24988C0.941176 9.37412 0.990118 9.49177 1.07953 9.58118L6.42918 14.9214C6.51859 15.0099 6.63624 15.0588 6.76141 15.0588C6.88659 15.0588 7.00424 15.0099 7.09365 14.9214L15.0588 6.93835V0.968471L9.10023 0.942118ZM6.76141 16H6.76047C6.38306 16 6.02918 15.8532 5.76376 15.5868L0.414118 10.2466C0.146824 9.98118 0 9.62635 0 9.24988C0 8.87341 0.146824 8.51859 0.414118 8.25318L8.57506 0.137412C8.66353 0.0498823 8.78306 0 8.90729 0H8.90918L15.5313 0.0291765C15.7901 0.0301176 16 0.240941 16 0.499765V7.13318C16 7.25835 15.9501 7.37788 15.8626 7.46635L7.75906 15.5868C7.49271 15.8532 7.13788 16 6.76141 16ZM13.1766 3.76471C13.1766 4.28518 12.7559 4.70588 12.2354 4.70588C11.7149 4.70588 11.2942 4.28518 11.2942 3.76471C11.2942 3.24424 11.7149 2.82353 12.2354 2.82353C12.7559 2.82353 13.1766 3.24424 13.1766 3.76471Z" fill="#445058"></path>
</svg>
