<svg width="16" height="16" viewBox="0 0 16 16" fill="none" xmlns="http://www.w3.org/2000/svg">
<path d="M15.5277 11.7648C15.7875 11.7648 15.9983 11.5539 15.9983 11.2942V10.8236C15.9983 10.0453 15.3649 9.41186 14.5866 9.41186H13.6455C12.3477 9.41186 11.2927 10.4678 11.2927 11.7648V13.6471C11.2927 14.944 12.3477 16 13.6455 16H14.5866C15.3649 16 15.9983 15.3666 15.9983 14.5883V14.1177C15.9983 13.8579 15.7875 13.6471 15.5277 13.6471C15.268 13.6471 15.0572 13.8579 15.0572 14.1177V14.5883C15.0572 14.848 14.8454 15.0588 14.5866 15.0588H13.6455C12.8672 15.0588 12.2338 14.4254 12.2338 13.6471V11.7648C12.2338 10.9864 12.8672 10.353 13.6455 10.353H14.5866C14.8454 10.353 15.0572 10.5638 15.0572 10.8236V11.2942C15.0572 11.5539 15.268 11.7648 15.5277 11.7648Z" fill="#131314"></path>
<path d="M9.54783 10.2156C9.64006 10.3069 9.76052 10.3531 9.88099 10.3531C10.0015 10.3531 10.1219 10.3069 10.2141 10.2156C10.3977 10.0321 10.3977 9.73377 10.2141 9.55024L8.66506 8.00109L9.88193 6.78416L11.431 8.33332C11.5223 8.42461 11.6428 8.47073 11.7632 8.47073C11.8837 8.47073 12.0042 8.42461 12.0964 8.33332C12.2799 8.14979 12.2799 7.85144 12.0964 7.66791L10.5473 6.11876L14.8219 1.844C14.8915 1.98894 14.9367 2.14705 14.9527 2.31458C15.0901 3.7075 15.1616 5.80912 14.7306 7.90603C14.6769 8.16108 14.8416 8.40955 15.0967 8.46226C15.348 8.51308 15.6002 8.35214 15.652 8.09614C16.1075 5.88347 16.0331 3.68115 15.891 2.22329C15.7828 1.10801 14.8934 0.219551 13.7791 0.111317C10.9962 -0.159738 5.87557 -0.165385 2.85551 2.85575C-0.164553 5.87594 -0.159847 10.9959 0.111196 13.7798C0.219425 14.8951 1.10879 15.7836 2.22307 15.8918C2.79904 15.9483 3.55665 15.9991 4.41683 15.9991C6.09579 15.9991 8.1672 15.8062 10.0513 15.0871C10.2941 14.9939 10.4155 14.7219 10.3224 14.4791C10.2292 14.2363 9.95628 14.1149 9.71441 14.2071C7.04727 15.2264 3.93121 15.1135 2.31436 14.9544C2.14779 14.9384 1.98874 14.8923 1.8438 14.8236L6.11838 10.5488L7.66747 12.098C7.75782 12.1893 7.87828 12.2354 7.99874 12.2354C8.11921 12.2354 8.23967 12.1893 8.3319 12.098C8.51542 11.9144 8.51542 11.6161 8.3319 11.4326L6.78281 9.88341L7.99969 8.66649L9.54783 10.2156ZM6.1165 9.21707L4.56741 7.66791C4.38389 7.48439 4.08556 7.48439 3.90204 7.66791C3.71852 7.85144 3.71852 8.14979 3.90204 8.33332L5.45113 9.88247L1.17655 14.1572C1.1069 14.0123 1.06173 13.8542 1.04573 13.6876C0.790686 11.0693 0.771864 6.26652 3.51806 3.52021C6.26426 0.772955 11.0668 0.790837 13.685 1.04777C13.8516 1.06377 14.0106 1.10989 14.1556 1.1786L9.88099 5.45242L8.3319 3.90326C8.14838 3.71974 7.85005 3.71974 7.66653 3.90326C7.48301 4.08679 7.48301 4.38514 7.66653 4.56867L9.21562 6.11782L7.99874 7.33474L6.44966 5.78559C6.26614 5.60206 5.9678 5.60206 5.78428 5.78559C5.60076 5.96912 5.60076 6.26746 5.78428 6.45099L7.33337 8.00014L6.1165 9.21707Z" fill="#131314"></path>
</svg>
