<svg width="16" height="16" viewBox="0 0 16 16" fill="none" xmlns="http://www.w3.org/2000/svg">
<path fill-rule="evenodd" clip-rule="evenodd" d="M11.1868 8.27215C11.3732 8.47639 11.5172 8.71639 11.6 8.99027C11.7515 9.49098 11.6922 10.0171 11.4325 10.4707L8.81412 15.0514C8.48094 15.6369 7.85412 16.0002 7.18023 16.0002H1.88235C0.844235 16.0002 0 15.1559 0 14.1178C0 13.0797 0.844235 12.2354 1.88235 12.2354H5.27906C5.62447 12.2354 5.94071 12.0472 6.10541 11.7451L7.87576 8.49992C8.36329 7.6058 9.45788 7.26227 10.3699 7.7178L10.4245 7.74509L14.1666 0.259917C14.2833 0.0274467 14.5656 -0.0657298 14.7981 0.0490937C15.0306 0.1658 15.1256 0.448153 15.0089 0.680623L11.2442 8.21003C11.236 8.22589 11.2237 8.23666 11.2115 8.24733L11.2115 8.24734C11.2027 8.25504 11.1939 8.26269 11.1868 8.27215ZM7.99718 14.5856L10.6155 10.0039C10.7454 9.77709 10.7755 9.51357 10.7002 9.26415C10.624 9.0138 10.4536 8.81239 10.2202 8.69568L9.94918 8.56015C9.49553 8.33333 8.94588 8.50462 8.70212 8.95074L6.93176 12.1959C6.60141 12.8011 5.968 13.1766 5.27906 13.1766H1.88235C1.36376 13.1766 0.941176 13.5992 0.941176 14.1178C0.941176 14.6364 1.36376 15.059 1.88235 15.059H7.18024C7.51718 15.059 7.83059 14.8783 7.99718 14.5856ZM14.9214 4.00015C14.7906 3.77521 14.5035 3.69804 14.2786 3.82886C14.0536 3.95874 13.9765 4.24674 14.1073 4.47168C14.7294 5.54745 15.0588 6.76721 15.0588 8.00015C15.0588 10.8877 13.3271 13.4552 10.6466 14.5413C10.4056 14.6392 10.2899 14.9131 10.3878 15.154C10.4621 15.3366 10.6381 15.4477 10.8235 15.4477C10.8819 15.4477 10.9421 15.4364 11.0005 15.4129C14.0376 14.1827 16 11.2726 16 8.00015C16 6.60156 15.6273 5.21804 14.9214 4.00015ZM1.20012 11.2595C1.14176 11.283 1.08153 11.2943 1.02318 11.2943C0.837765 11.2943 0.660823 11.1833 0.589294 11.0016C0.199647 10.0398 0.002 9.03081 0.002 8.00116C0.002 3.58987 3.59071 0.0011621 8.002 0.0011621C9.39965 0.0011621 10.7832 0.373868 12.002 1.07975C12.2269 1.20963 12.3041 1.49763 12.1733 1.72257C12.0425 1.94751 11.7545 2.02375 11.5305 1.89387C10.4538 1.27081 9.234 0.941397 8.00106 0.941397C4.10835 0.941397 0.942235 4.10751 0.942235 8.00022C0.942235 8.90751 1.11635 9.79787 1.45988 10.6468C1.55682 10.8877 1.44106 11.1616 1.20012 11.2595Z" fill="#131314"></path>
</svg>
