<svg width="20" height="20" viewBox="0 0 20 20" fill="none" xmlns="http://www.w3.org/2000/svg">
<path fill-rule="evenodd" clip-rule="evenodd" d="M11.3753 1.17765L1.34824 11.1494C1.23765 11.2588 1.17647 11.4059 1.17647 11.5624C1.17647 11.7176 1.23765 11.8647 1.34941 11.9765L8.03647 18.6518C8.14824 18.7624 8.29529 18.8235 8.45177 18.8235C8.60824 18.8235 8.75529 18.7624 8.86706 18.6518L18.8235 8.67294V1.21059L11.3753 1.17765ZM8.45177 20H8.45059C7.97882 20 7.53647 19.8165 7.20471 19.4835L0.517647 12.8082C0.183529 12.4765 0 12.0329 0 11.5624C0 11.0918 0.183529 10.6482 0.517647 10.3165L10.7188 0.171765C10.8294 0.0623529 10.9788 0 11.1341 0H11.1365L19.4141 0.0364706C19.7376 0.0376471 20 0.301176 20 0.624706V8.91647C20 9.07294 19.9376 9.22235 19.8282 9.33294L9.69882 19.4835C9.36588 19.8165 8.92235 20 8.45177 20ZM16.4707 4.70588C16.4707 5.35647 15.9448 5.88235 15.2942 5.88235C14.6436 5.88235 14.1178 5.35647 14.1178 4.70588C14.1178 4.05529 14.6436 3.52941 15.2942 3.52941C15.9448 3.52941 16.4707 4.05529 16.4707 4.70588Z" fill="#131314"></path>
</svg>
