<svg width="16" height="16" viewBox="0 0 16 16" fill="none" xmlns="http://www.w3.org/2000/svg">
<path fill-rule="evenodd" clip-rule="evenodd" d="M8 0C3.58212 0 0 3.58212 0 8C0 12.4179 3.58212 16 8 16C12.4179 16 16 12.4179 16 8C16 3.58212 12.4179 0 8 0ZM15.0353 8.47059C14.9525 9.71388 14.5515 10.8706 13.9049 11.8569C12.4216 10.9751 11.5115 9.77788 11.3346 8.47059H15.0353ZM13.9049 4.14306C12.4216 5.02494 11.5115 6.22212 11.3346 7.52941H15.0353C14.9525 6.28518 14.5515 5.12941 13.9049 4.14306ZM13.3346 3.39106C11.6282 4.44047 10.5694 5.93035 10.3934 7.52941H8.47059V0.964706C10.4104 1.09365 12.1355 2.00565 13.3346 3.39106ZM7.52941 7.52941V0.964706C5.58965 1.09365 3.86447 2.00565 2.66541 3.39012C4.37176 4.43953 5.43153 5.93035 5.60753 7.52941H7.52941ZM0.964706 7.52941C1.04753 6.28612 1.44847 5.12941 2.09506 4.14306C3.57835 5.02494 4.48847 6.22212 4.66541 7.52941H0.964706ZM2.096 11.8569C3.57929 10.9751 4.48941 9.77694 4.66635 8.47059H0.964706C1.04753 9.71388 1.44941 10.8706 2.096 11.8569ZM2.66635 12.6099C4.37271 11.5605 5.43153 10.0706 5.60753 8.47059H7.52941V15.0353C5.59059 14.9064 3.86447 13.9944 2.66635 12.6099ZM8.47059 8.47059V15.0353C10.4104 14.9064 12.1355 13.9944 13.3336 12.6089C11.6273 11.5605 10.5685 10.0696 10.3925 8.47059H8.47059Z" fill="#445058"></path>
</svg>
