<svg width="16" height="16" viewBox="0 0 16 16" fill="none" xmlns="http://www.w3.org/2000/svg">
<path fill-rule="evenodd" clip-rule="evenodd" d="M0 8C0 3.58212 3.58212 0 8 0C12.4179 0 16 3.58212 16 8C16 12.4179 12.4179 16 8 16C3.58212 16 0 12.4179 0 8ZM12.0094 2.82353H12.7831C12.3736 2.44518 11.9238 2.112 11.4344 1.83906L11.6584 2.56471C11.7064 2.72 11.8475 2.82353 12.0094 2.82353ZM5.29412 2.84329L5.76847 1.30918C6.47059 1.07388 7.21977 0.942118 8 0.942118C8.80282 0.942118 9.57271 1.08329 10.2918 1.33176L10.7595 2.84329C10.7934 2.95247 10.8489 3.04753 10.9064 3.14071L9.776 4.77647C9.63765 4.73129 9.49271 4.70588 9.34118 4.70588H6.65788C6.50635 4.70588 6.36141 4.73129 6.224 4.77553L5.12471 3.18494C5.19529 3.08047 5.25553 2.96847 5.29412 2.84329ZM10.6504 8.76047L9.79106 5.97835C9.72988 5.78071 9.54918 5.64706 9.34212 5.64706H6.65882C6.45082 5.64706 6.27012 5.78071 6.20894 5.97835L5.34965 8.75953C5.29129 8.94776 5.35718 9.15388 5.51341 9.27247L7.71482 10.9544C7.88235 11.0833 8.11671 11.0833 8.28518 10.9544L10.4866 9.27247C10.6428 9.15388 10.7087 8.94777 10.6504 8.76047ZM4.63247 1.79765L4.39529 2.56471C4.34729 2.72 4.20612 2.82353 4.04424 2.82353H3.21694C3.64518 2.42824 4.11671 2.07906 4.63247 1.79765ZM1.04471 9.152C1.19247 10.0518 1.51059 10.8922 1.96612 11.6433L2.33788 10.4424C2.38306 10.2955 2.33129 10.1355 2.20988 10.0424L1.04471 9.152ZM0.946824 7.89365C0.970353 6.34447 1.49647 4.91953 2.36612 3.76471H4.04424C4.1435 3.76471 4.23776 3.74217 4.33094 3.71989L4.34824 3.71576L5.48047 5.35435C5.41176 5.46165 5.34871 5.57365 5.30918 5.70071L4.44988 8.48188C4.40659 8.62306 4.38588 8.76706 4.38776 8.90918L2.89882 9.41835C2.88385 9.40338 2.87004 9.38738 2.85624 9.37139C2.83274 9.34417 2.80929 9.317 2.78024 9.29506L0.946824 7.89365ZM3.23576 10.72L2.65506 12.5976C3.45224 13.5219 4.48282 14.2353 5.65459 14.6494L7.232 13.4447C7.32988 13.3704 7.43906 13.3205 7.54918 13.2772C7.54696 13.2658 7.54399 13.2547 7.54103 13.2436L7.54102 13.2436C7.5352 13.2218 7.52941 13.2002 7.52941 13.1765V11.9068C7.39294 11.8588 7.26118 11.7929 7.14259 11.7026L4.94118 10.0207C4.85979 9.9581 4.7954 9.8802 4.73105 9.80235L4.72094 9.79012L3.28659 10.2805C3.29318 10.4264 3.28 10.5751 3.23576 10.72ZM8 15.0588C7.59435 15.0588 7.19906 15.0165 6.81224 14.9506L7.80423 14.1929C7.93412 14.0922 8.11765 14.0922 8.24941 14.1929L9.23294 14.944C8.832 15.0146 8.42071 15.0588 8 15.0588ZM8.82165 13.4447L10.3812 14.6362C11.5576 14.2127 12.5911 13.4899 13.3854 12.5534L12.8188 10.72C12.7755 10.5807 12.7605 10.4386 12.7652 10.2974L11.28 9.79012L11.2702 9.80202C11.2057 9.87998 11.1412 9.95801 11.0588 10.0207L8.85741 11.7026C8.73788 11.7929 8.60706 11.8588 8.47059 11.9068V13.1765C8.47059 13.1923 8.46652 13.2071 8.46246 13.2219C8.45975 13.2317 8.45704 13.2416 8.45553 13.2518C8.58447 13.296 8.70871 13.3591 8.82165 13.4447ZM13.2744 9.29412C13.2409 9.31967 13.2141 9.35073 13.1874 9.38171C13.1728 9.39865 13.1582 9.41556 13.1426 9.43153L11.6122 8.90824C11.6132 8.76612 11.5934 8.62118 11.5501 8.48094L10.6908 5.69976C10.6513 5.57271 10.5892 5.46071 10.5195 5.35341L11.6574 3.70729C11.7704 3.73929 11.8871 3.76376 12.0104 3.76376H13.6348C14.5129 4.928 15.0419 6.368 15.0569 7.93224L13.2744 9.29412ZM13.7167 10.4424L14.0696 11.5849C14.4988 10.8612 14.8009 10.0574 14.9487 9.19906L13.8447 10.0424C13.7224 10.1355 13.6715 10.2955 13.7167 10.4424Z" fill="#445058"></path>
</svg>
