<svg width="16" height="16" viewBox="0 0 16 16" fill="none" xmlns="http://www.w3.org/2000/svg">
<path d="M15.5294 8.47059C15.7892 8.47059 16 8.25976 16 8C16 3.58871 12.4113 0 8 0C3.58871 0 0 3.58871 0 8C0 12.4113 3.58871 16 8 16C8.62965 16 9.28376 15.9096 10 15.7242C10.2522 15.6593 10.4038 15.4024 10.3379 15.1511C10.2729 14.8998 10.0169 14.7473 9.76471 14.8141C9.30259 14.9336 8.88 14.9929 8.47059 15.0259V8.47059H15.5294ZM11.408 7.52941C11.7045 6.21271 12.6334 5.19718 14.0678 4.39906C14.6202 5.32706 14.9675 6.39153 15.0428 7.52941H11.408ZM13.4579 3.53976C11.7609 4.48094 10.6635 5.536 10.4113 7.52941H8.47059V0.963765C10.4781 1.09741 12.256 2.07153 13.4579 3.53976ZM7.52941 0.963765V7.52941H5.60753C5.43153 5.92941 4.37082 4.43859 2.66353 3.38918C3.86259 2.00376 5.58965 1.09271 7.52941 0.963765ZM2.09788 4.14494C3.57929 5.02682 4.48847 6.22306 4.66541 7.52941H0.956235C1.03906 6.28424 1.45129 5.13129 2.09788 4.14494ZM4.66541 8.47059C4.48847 9.77694 3.57929 10.9741 2.09788 11.8551C1.45129 10.8687 1.03906 9.71482 0.956235 8.47059H4.66541ZM7.52941 15.0362C5.58965 14.9073 3.86259 13.9962 2.66353 12.6108C4.37082 11.5614 5.43059 10.0706 5.60753 8.47059H7.52941V15.0362Z" fill="#445058"></path>
<path d="M14.5882 9.41177H13.6471C12.3492 9.41177 11.2941 10.4678 11.2941 11.7647V13.6471C11.2941 14.944 12.3492 16 13.6471 16H14.5882C15.3666 16 16 15.3666 16 14.5882V14.1176C16 13.8579 15.7892 13.6471 15.5294 13.6471C15.2696 13.6471 15.0588 13.8579 15.0588 14.1176V14.5882C15.0588 14.848 14.8471 15.0588 14.5882 15.0588H13.6471C12.8687 15.0588 12.2353 14.4254 12.2353 13.6471V11.7647C12.2353 10.9864 12.8687 10.3529 13.6471 10.3529H14.5882C14.8471 10.3529 15.0588 10.5638 15.0588 10.8235V11.2941C15.0588 11.5539 15.2696 11.7647 15.5294 11.7647C15.7892 11.7647 16 11.5539 16 11.2941V10.8235C16 10.0452 15.3666 9.41177 14.5882 9.41177Z" fill="#445058"></path>
</svg>
