<svg width="16" height="17" viewBox="0 0 16 17" fill="none" xmlns="http://www.w3.org/2000/svg">
<path d="M7.05928 2.82634C7.31918 2.82634 7.52987 2.61565 7.52987 2.35575C7.52987 2.09585 7.31918 1.88516 7.05928 1.88516C6.79938 1.88516 6.5887 2.09585 6.5887 2.35575C6.5887 2.61565 6.79938 2.82634 7.05928 2.82634Z" fill="#445058"></path>
<path d="M6.5887 4.2381C6.5887 4.498 6.37801 4.70869 6.11811 4.70869C5.85821 4.70869 5.64752 4.498 5.64752 4.2381C5.64752 3.9782 5.85821 3.76751 6.11811 3.76751C6.37801 3.76751 6.5887 3.9782 6.5887 4.2381Z" fill="#445058"></path>
<path d="M8.94164 2.82634C9.20153 2.82634 9.41222 2.61565 9.41222 2.35575C9.41222 2.09585 9.20153 1.88516 8.94164 1.88516C8.68174 1.88516 8.47105 2.09585 8.47105 2.35575C8.47105 2.61565 8.68174 2.82634 8.94164 2.82634Z" fill="#445058"></path>
<path d="M11.2946 3.29693C11.2946 3.55682 11.0839 3.76751 10.824 3.76751C10.5641 3.76751 10.3534 3.55682 10.3534 3.29693C10.3534 3.03703 10.5641 2.82634 10.824 2.82634C11.0839 2.82634 11.2946 3.03703 11.2946 3.29693Z" fill="#445058"></path>
<path d="M9.88281 4.70869C10.1427 4.70869 10.3534 4.498 10.3534 4.2381C10.3534 3.9782 10.1427 3.76751 9.88281 3.76751C9.62291 3.76751 9.41222 3.9782 9.41222 4.2381C9.41222 4.498 9.62291 4.70869 9.88281 4.70869Z" fill="#445058"></path>
<path d="M8.47105 4.2381C8.47105 4.498 8.26036 4.70869 8.00046 4.70869C7.74056 4.70869 7.52987 4.498 7.52987 4.2381C7.52987 3.9782 7.74056 3.76751 8.00046 3.76751C8.26036 3.76751 8.47105 3.9782 8.47105 4.2381Z" fill="#445058"></path>
<path d="M7.05928 10.3557C7.31918 10.3557 7.52987 10.1451 7.52987 9.88516C7.52987 9.62526 7.31918 9.41457 7.05928 9.41457C6.79938 9.41457 6.5887 9.62526 6.5887 9.88516C6.5887 10.1451 6.79938 10.3557 7.05928 10.3557Z" fill="#445058"></path>
<path d="M9.41222 9.88516C9.41222 10.1451 9.20153 10.3557 8.94164 10.3557C8.68174 10.3557 8.47105 10.1451 8.47105 9.88516C8.47105 9.62526 8.68174 9.41457 8.94164 9.41457C9.20153 9.41457 9.41222 9.62526 9.41222 9.88516Z" fill="#445058"></path>
<path d="M4.23575 7.53222C4.49565 7.53222 4.70634 7.32153 4.70634 7.06163C4.70634 6.80173 4.49565 6.59104 4.23575 6.59104C3.97586 6.59104 3.76517 6.80173 3.76517 7.06163C3.76517 7.32153 3.97586 7.53222 4.23575 7.53222Z" fill="#445058"></path>
<path d="M5.64752 8.94398C5.64752 9.20388 5.43683 9.41457 5.17693 9.41457C4.91703 9.41457 4.70634 9.20388 4.70634 8.94398C4.70634 8.68409 4.91703 8.4734 5.17693 8.4734C5.43683 8.4734 5.64752 8.68409 5.64752 8.94398Z" fill="#445058"></path>
<path d="M4.23575 5.64987C4.49565 5.64987 4.70634 5.43918 4.70634 5.17928C4.70634 4.91938 4.49565 4.70869 4.23575 4.70869C3.97586 4.70869 3.76517 4.91938 3.76517 5.17928C3.76517 5.43918 3.97586 5.64987 4.23575 5.64987Z" fill="#445058"></path>
<path d="M5.64752 3.29693C5.64752 3.55682 5.43683 3.76751 5.17693 3.76751C4.91703 3.76751 4.70634 3.55682 4.70634 3.29693C4.70634 3.03703 4.91703 2.82634 5.17693 2.82634C5.43683 2.82634 5.64752 3.03703 5.64752 3.29693Z" fill="#445058"></path>
<path d="M11.7652 7.53222C12.0251 7.53222 12.2358 7.32153 12.2358 7.06163C12.2358 6.80173 12.0251 6.59104 11.7652 6.59104C11.5053 6.59104 11.2946 6.80173 11.2946 7.06163C11.2946 7.32153 11.5053 7.53222 11.7652 7.53222Z" fill="#445058"></path>
<path d="M11.2946 8.94398C11.2946 9.20388 11.0839 9.41457 10.824 9.41457C10.5641 9.41457 10.3534 9.20388 10.3534 8.94398C10.3534 8.68409 10.5641 8.4734 10.824 8.4734C11.0839 8.4734 11.2946 8.68409 11.2946 8.94398Z" fill="#445058"></path>
<path d="M9.88281 8.4734C10.1427 8.4734 10.3534 8.26271 10.3534 8.00281C10.3534 7.74291 10.1427 7.53222 9.88281 7.53222C9.62291 7.53222 9.41222 7.74291 9.41222 8.00281C9.41222 8.26271 9.62291 8.4734 9.88281 8.4734Z" fill="#445058"></path>
<path d="M12.2358 5.17928C12.2358 5.43918 12.0251 5.64987 11.7652 5.64987C11.5053 5.64987 11.2946 5.43918 11.2946 5.17928C11.2946 4.91938 11.5053 4.70869 11.7652 4.70869C12.0251 4.70869 12.2358 4.91938 12.2358 5.17928Z" fill="#445058"></path>
<path d="M9.88281 6.59104C10.1427 6.59104 10.3534 6.38035 10.3534 6.12045C10.3534 5.86056 10.1427 5.64987 9.88281 5.64987C9.62291 5.64987 9.41222 5.86056 9.41222 6.12045C9.41222 6.38035 9.62291 6.59104 9.88281 6.59104Z" fill="#445058"></path>
<path d="M8.47105 6.12045C8.47105 6.38035 8.26036 6.59104 8.00046 6.59104C7.74056 6.59104 7.52987 6.38035 7.52987 6.12045C7.52987 5.86056 7.74056 5.64987 8.00046 5.64987C8.26036 5.64987 8.47105 5.86056 8.47105 6.12045Z" fill="#445058"></path>
<path d="M8.00046 8.4734C8.26036 8.4734 8.47105 8.26271 8.47105 8.00281C8.47105 7.74291 8.26036 7.53222 8.00046 7.53222C7.74056 7.53222 7.52987 7.74291 7.52987 8.00281C7.52987 8.26271 7.74056 8.4734 8.00046 8.4734Z" fill="#445058"></path>
<path d="M6.5887 6.12045C6.5887 6.38035 6.37801 6.59104 6.11811 6.59104C5.85821 6.59104 5.64752 6.38035 5.64752 6.12045C5.64752 5.86056 5.85821 5.64987 6.11811 5.64987C6.37801 5.64987 6.5887 5.86056 6.5887 6.12045Z" fill="#445058"></path>
<path d="M6.11811 8.4734C6.37801 8.4734 6.5887 8.26271 6.5887 8.00281C6.5887 7.74291 6.37801 7.53222 6.11811 7.53222C5.85821 7.53222 5.64752 7.74291 5.64752 8.00281C5.64752 8.26271 5.85821 8.4734 6.11811 8.4734Z" fill="#445058"></path>
<path fill-rule="evenodd" clip-rule="evenodd" d="M1.88281 6.12045C1.88281 2.74163 4.62164 0.00280762 8.00046 0.00280762C11.3793 0.00280762 14.1181 2.74163 14.1181 6.12045C14.1181 9.49928 11.3793 12.2381 8.00046 12.2381C4.62164 12.2381 1.88281 9.49928 1.88281 6.12045ZM2.82399 6.12045C2.82399 8.97504 5.14587 11.2969 8.00046 11.2969C10.855 11.2969 13.1769 8.97504 13.1769 6.12045C13.1769 3.26587 10.855 0.943984 8.00046 0.943984C5.14587 0.943984 2.82399 3.26587 2.82399 6.12045Z" fill="#445058"></path>
<path d="M6.13128 13.5416C6.18022 13.3299 6.37128 13.1793 6.5887 13.1793H9.41222C9.62964 13.1793 9.82069 13.3299 9.87058 13.5426C9.92046 13.7553 9.81787 13.9736 9.62305 14.0715L9.37928 14.1929C9.04234 14.3614 8.79105 14.6513 8.67152 15.0089L8.44752 15.6809C8.38258 15.8729 8.20281 16.0028 8.00046 16.0028C7.79717 16.0028 7.61834 15.8729 7.55434 15.68L7.33128 15.0089C7.21175 14.6513 6.96046 14.3614 6.62352 14.1929L6.37881 14.0706C6.18399 13.9727 6.08046 13.7543 6.13128 13.5416Z" fill="#445058"></path>
</svg>
