<svg width="16" height="16" viewBox="0 0 16 16" fill="none" xmlns="http://www.w3.org/2000/svg">
<path fill-rule="evenodd" clip-rule="evenodd" d="M15.8883 2.22332C15.7801 1.10836 14.8918 0.220145 13.7768 0.111942C10.9944 -0.16092 5.87364 -0.163742 2.85503 2.85561C-0.164525 5.87402 -0.15982 10.9935 0.111177 13.7767C0.219388 14.8916 1.10766 15.7798 2.2227 15.888C2.86726 15.9511 3.63697 16 4.47725 16C7.26439 16 10.825 15.4656 13.1445 13.1453C16.165 10.125 16.1603 5.00557 15.8883 2.22332ZM3.52029 3.51989C5.61393 1.42638 8.90166 0.939935 11.5063 0.939935C12.3183 0.939935 13.0635 0.98698 13.6855 1.04814C13.8521 1.06413 14.0111 1.11024 14.1551 1.17892L9.88215 5.4525L8.33332 3.90377C8.14983 3.7203 7.85155 3.7203 7.66806 3.90377C7.48457 4.08725 7.48457 4.38552 7.66806 4.56899L9.21689 6.11771L8.00022 7.3343L6.45139 5.78558C6.2679 5.6021 5.96962 5.6021 5.78613 5.78558C5.60264 5.96905 5.60264 6.26732 5.78613 6.45079L7.33496 7.99952L6.11829 9.2161L4.56946 7.66738C4.38598 7.4839 4.08769 7.4839 3.9042 7.66738C3.72072 7.85085 3.72072 8.14912 3.9042 8.3326L5.45303 9.88132L1.17917 14.1549C1.10954 14.01 1.06437 13.8519 1.04838 13.6854C0.792435 11.0669 0.774557 6.26544 3.52029 3.51989ZM2.31491 14.9509C4.93174 15.2049 9.73442 15.2247 12.4801 12.4791C15.2259 9.7336 15.208 4.93218 14.9521 2.31365C14.9361 2.14711 14.8909 1.98904 14.8213 1.84414L10.5474 6.11771L12.0972 7.66738C12.2807 7.85085 12.2807 8.14912 12.0972 8.3326C12.005 8.42386 11.8845 8.46997 11.7641 8.46997C11.6436 8.46997 11.5232 8.42386 11.431 8.33165L9.88215 6.78293L8.66548 7.99952L10.2152 9.54918C10.3987 9.73266 10.3987 10.0309 10.2152 10.2144C10.123 10.3057 10.0026 10.3518 9.88215 10.3518C9.7617 10.3518 9.64126 10.3057 9.54905 10.2135L8.00022 8.66473L6.78355 9.88132L8.33332 11.431C8.51681 11.6145 8.51681 11.9127 8.33332 12.0962C8.24111 12.1875 8.12066 12.2336 8.00022 12.2336C7.87978 12.2336 7.75933 12.1875 7.66806 12.0953L6.11923 10.5465L1.84537 14.8201C1.98934 14.8888 2.14836 14.9349 2.31491 14.9509Z" fill="#131314"></path>
</svg>
