<?xml version="1.0" encoding="utf-8"?>
<!-- Generator: Adobe Illustrator 27.7.0, SVG Export Plug-In . SVG Version: 6.00 Build 0)  -->
<svg version="1.1" id="Layer_1" xmlns="http://www.w3.org/2000/svg" xmlns:xlink="http://www.w3.org/1999/xlink" x="0px" y="0px"
	 viewBox="0 0 46 56" style="enable-background:new 0 0 46 56;" xml:space="preserve">
<style type="text/css">
	.st0{fill:#888888;}
	.st1{fill:#111111;}
	.st2{fill:#BA0529;}
	.st3{opacity:0.2;fill:#FFFFFF;}
	.st4{fill-rule:evenodd;clip-rule:evenodd;fill:#FFFFFF;}
	.st5{fill-rule:evenodd;clip-rule:evenodd;fill:#1D3763;}
	.st6{fill:#FFFFFF;}
	.st7{fill:#D41116;}
</style>
<g id="ATL_Falcons">
	<path class="st0" d="M17.834,0.248L17.834,0.248l0.302-0.097c0.784-0.165,2.57-0.156,4.032-0.146c0.589,0.004,1.057,0.004,1.645,0
		c1.474-0.008,3.261-0.018,4.043,0.149l0.252,0.061l0,0c0.032,0.019,0.064,0.037,0.097,0.055l0.027,0.015
		c0.358,0.2,0.707,0.428,1.044,0.648l0.176,0.114c0.126,0.082,0.254,0.16,0.382,0.239c0.122,0.074,0.243,0.149,0.363,0.227
		l0.127,0.084c1.387,0.78,8.419,4.74,9.726,5.611c1.231,0.821,2.294,3.253,2.684,4.424l2.859,18.46l-0.08,0.041
		c-2.675,1.378-6.784,1.405-8.586,1.229l-0.09-0.009l-0.886-4.283l1.524,25.526l-0.064,0.039c-0.359,0.214-1.755,0.936-4.475,2.136
		C30.149,56,25.139,56,23,56s-7.148,0-9.935-1.23c-2.725-1.202-4.119-1.923-4.475-2.136l-0.065-0.039l0.004-0.076l1.52-25.451
		l-0.886,4.283l-0.091,0.009c-1.799,0.178-5.912,0.148-8.585-1.229l-0.08-0.041l0.014-0.09l2.839-18.35
		c0.396-1.192,1.459-3.624,2.69-4.444c1.311-0.874,8.443-4.89,9.86-5.686c0.162-0.098,0.418-0.265,0.697-0.447
		c0.284-0.184,0.591-0.384,0.85-0.545l0.136-0.084c0.11-0.067,0.2-0.118,0.276-0.161l0.033-0.018L17.834,0.248z M8.783,52.458
		c0.437,0.25,1.813,0.951,4.382,2.084c2.739,1.208,7.711,1.208,9.835,1.208s7.096,0,9.834-1.208
		c2.566-1.132,3.943-1.833,4.383-2.084l-1.618-27.094l0.246-0.033l1.198,5.79c1.802,0.162,5.698,0.118,8.276-1.17l-2.825-18.262
		c-0.377-1.123-1.408-3.491-2.582-4.275c-1.299-0.866-8.324-4.822-9.719-5.607l-0.131-0.087c-0.118-0.076-0.238-0.15-0.358-0.223
		c-0.13-0.08-0.261-0.16-0.388-0.242L29.14,1.14c-0.334-0.217-0.678-0.443-1.028-0.639c-0.018-0.01-0.034-0.018-0.049-0.026
		L28,0.453c-0.529-0.22-2.639-0.21-4.186-0.2c-0.59,0.004-1.059,0.004-1.648,0c-1.521-0.009-3.607-0.02-4.168,0.193l-0.03,0.012
		c-0.004,0.002-0.009,0.005-0.014,0.008l-0.063,0.035c-0.076,0.042-0.163,0.092-0.256,0.148L17.51,0.726
		c-0.281,0.175-0.587,0.374-0.869,0.557c-0.282,0.183-0.54,0.351-0.707,0.453C14.516,2.533,7.39,6.545,6.087,7.415
		c-1.174,0.783-2.206,3.152-2.587,4.295L0.68,29.951c2.579,1.288,6.474,1.335,8.277,1.17l1.198-5.79l0.247,0.033L8.783,52.458z"/>
	<path class="st1" d="M45.456,30.021l-2.839-18.35c-0.372-1.115-1.419-3.548-2.636-4.359c-1.094-0.73-6.395-3.783-9.694-5.638
		c-0.041-0.028-0.115-0.077-0.157-0.104c-0.246-0.158-0.501-0.258-0.746-0.418c-0.399-0.26-0.797-0.526-1.213-0.758
		c-0.043-0.024-0.087-0.047-0.129-0.072c0.002,0.006,0.004,0.012,0.006,0.018c-0.653-0.273-3.44-0.206-5.058-0.206
		c-1.601,0-4.345-0.065-5.036,0.198c0.001-0.003,0.002-0.006,0.003-0.009c-0.018,0.011-0.039,0.023-0.063,0.036
		c-0.008,0.004-0.015,0.008-0.022,0.012c-0.014,0.008-0.028,0.016-0.044,0.024c-0.075,0.042-0.164,0.093-0.258,0.15
		c-0.026,0.016-0.054,0.033-0.081,0.049c-0.023,0.014-0.045,0.028-0.069,0.042C16.906,0.955,16.134,1.42,15.8,1.622
		c-3.287,1.848-8.674,4.949-9.782,5.688c-1.217,0.811-2.264,3.244-2.636,4.359l-2.839,18.35c2.677,1.379,6.793,1.385,8.516,1.217
		l1.217-5.88L8.654,52.527c0.338,0.203,1.703,0.912,4.461,2.129c2.736,1.207,7.704,1.219,9.885,1.219
		c2.189,0,7.148-0.012,9.885-1.219c2.758-1.217,4.123-1.926,4.461-2.129l-1.622-27.171l1.217,5.88
		C38.663,31.406,42.78,31.399,45.456,30.021z"/>
	<path class="st2" d="M10.313,24.757L8.648,52.54l1.142,0.578L10.313,24.757L10.313,24.757z"/>
	<path class="st2" d="M35.686,24.758l1.665,27.784l-1.142,0.577L35.686,24.758L35.686,24.758z"/>
	<path d="M21.977,7.651c0.399,0,0.656,0.233,0.983,0.233c0.328,0,0.584-0.233,0.983-0.233c1.857-0.905,5.278-4.053,4.351-6.145
		c-1.691,0-3.643,0-5.334,0c-1.691,0-3.643,0-5.334,0C16.985,3.648,20.297,6.312,21.977,7.651z"/>
	<path class="st1" d="M17.998,1.1c-0.064,0.497-0.009,1.1,0.284,1.789c1.478,0.087,3.232,0.237,4.709,0.222
		c1.484,0.015,3.246-0.137,4.728-0.223c0.298-0.702,0.349-1.316,0.278-1.821c-0.028-0.204-0.079-0.4-0.164-0.635l-0.078-0.213
		c-0.963-0.181-3.324-0.129-4.765-0.129c-1.432,0-3.773-0.051-4.747,0.126l-0.076,0.207C18.082,0.655,18.027,0.877,17.998,1.1z"/>
	<path class="st1" d="M30.271,1.702l-0.014-0.039L30.223,1.64c-0.051-0.035-0.103-0.069-0.155-0.103
		c-0.115-0.075-0.232-0.146-0.35-0.218c-0.129-0.079-0.257-0.157-0.382-0.239l-0.18-0.117c-0.328-0.214-0.669-0.436-1.02-0.632l0,0
		c-0.065-0.054-0.196-0.078-0.382-0.113l0.078,0.213c0.085,0.235,0.136,0.431,0.164,0.635c0.071,0.505,0.02,1.119-0.278,1.821
		C27.189,4.136,25.869,5.666,23,7.38c-2.872-1.714-4.189-3.245-4.718-4.491C17.989,2.2,17.934,1.597,17.998,1.1
		c0.029-0.223,0.084-0.445,0.169-0.678l0.076-0.207c-0.195,0.035-0.34,0.079-0.407,0.135l-0.232,0.131l-0.146,0.09
		c-0.254,0.158-0.555,0.354-0.833,0.534c-0.289,0.188-0.554,0.36-0.715,0.457l-0.042,0.024l-0.037,0.021
		c-0.023,0.013-0.041,0.023-0.052,0.03l-0.037,0.023l-0.015,0.041c-0.089,0.254-0.139,0.521-0.15,0.794
		c-0.089,2.231,2.426,5.093,7.274,8.276L23,10.869l0.149-0.098c4.878-3.203,7.392-6.078,7.272-8.315
		C30.406,2.196,30.355,1.942,30.271,1.702z"/>
	<path class="st3" d="M22.936,7.633L23,7.671l0.064-0.038c3.043-1.806,4.404-3.434,4.928-4.761c0.278-0.704,0.325-1.325,0.253-1.84
		c-0.019-0.134-0.044-0.264-0.084-0.4c-0.026-0.087-0.141-0.358-0.141-0.358c-0.081-0.025-0.115-0.033-0.265-0.057l0.078,0.213
		c0.085,0.235,0.136,0.431,0.164,0.635c0.071,0.505,0.02,1.119-0.278,1.821C27.189,4.136,25.869,5.666,23,7.38
		c-2.872-1.714-4.189-3.245-4.718-4.491C17.989,2.2,17.934,1.597,17.998,1.1c0.029-0.223,0.084-0.445,0.169-0.678l0.076-0.207
		C18.048,0.25,18.04,0.259,17.974,0.28c0,0-0.112,0.262-0.137,0.353c-0.024,0.09-0.069,0.29-0.087,0.435
		c-0.065,0.506-0.015,1.116,0.258,1.805C18.532,4.199,19.891,5.827,22.936,7.633z"/>
	<path class="st3" d="M30.271,1.702l-0.018-0.054c0,0-0.065-0.044-0.087-0.058c-0.052-0.033-0.211-0.125-0.211-0.125
		c0.068,0.207,0.203,0.782,0.216,1.005c0.114,2.112-2.429,4.986-7.159,8.093L23,10.57l-0.012-0.008
		c-6.027-3.957-7.221-6.565-7.161-8.057c0.009-0.232,0.005-0.409,0.195-1.012l-0.191,0.114c-0.023,0.013-0.041,0.023-0.052,0.03
		l-0.037,0.023l-0.015,0.041c-0.089,0.254-0.139,0.521-0.15,0.794c-0.089,2.231,2.426,5.093,7.274,8.276L23,10.869l0.149-0.098
		c4.878-3.203,7.392-6.078,7.272-8.315C30.406,2.196,30.355,1.942,30.271,1.702z"/>
	<g>
		<g>
			<path class="st4" d="M24.12,7.979c-0.101,0.076-0.303,0.177-0.556,0.114C23.117,7.983,22.991,7.6,22.991,7.6
				s-0.127,0.383-0.573,0.493c-0.257,0.063-0.455-0.039-0.56-0.113h-0.08v1.731c0,0.055,0.013,0.156,0.097,0.261
				c0.105,0.126,0.282,0.208,0.527,0.243c0.198,0.028,0.341,0.09,0.442,0.188c0.076,0.072,0.147,0.197,0.147,0.197
				s0.074-0.127,0.146-0.197c0.102-0.098,0.246-0.159,0.442-0.188c0.245-0.035,0.421-0.118,0.527-0.245
				c0.085-0.103,0.097-0.206,0.097-0.258V7.981h-0.08"/>
			<path class="st5" d="M24.072,8.12c0,0-0.231,0.18-0.556,0.098c-0.379-0.095-0.528-0.379-0.528-0.379s-0.147,0.284-0.528,0.379
				c-0.32,0.08-0.552-0.1-0.552-0.1v1.552c0,0.064,0.027,0.336,0.536,0.408c0.201,0.029,0.35,0.093,0.456,0.197
				c0.039,0.037,0.068,0.075,0.09,0.11c0.023-0.035,0.052-0.072,0.09-0.11c0.108-0.104,0.257-0.168,0.456-0.197
				c0.508-0.073,0.532-0.346,0.536-0.408V8.118"/>
		</g>
		<g>
			<rect x="22.278" y="8.744" class="st6" width="1.424" height="0.712"/>
			<rect x="22.397" y="8.863" class="st7" width="0.356" height="0.475"/>
			<rect x="22.872" y="8.863" class="st7" width="0.237" height="0.475"/>
			<rect x="23.228" y="8.863" class="st7" width="0.356" height="0.475"/>
		</g>
	</g>
</g>
</svg>
