<svg width="17" height="17" viewBox="0 0 17 17" fill="none" xmlns="http://www.w3.org/2000/svg">
<path fill-rule="evenodd" clip-rule="evenodd" d="M13 8.5C13 10.9853 10.9853 13 8.5 13C6.01472 13 4 10.9853 4 8.5C4 6.01472 6.01472 4 8.5 4C10.9853 4 13 6.01472 13 8.5ZM12 8.5C12 10.433 10.433 12 8.5 12C6.567 12 5 10.433 5 8.5C5 6.567 6.567 5 8.5 5C10.433 5 12 6.567 12 8.5Z" fill="#445058"></path>
<path fill-rule="evenodd" clip-rule="evenodd" d="M17 8.5C17 13.1944 13.1944 17 8.5 17C3.80558 17 0 13.1944 0 8.5C0 3.80558 3.80558 0 8.5 0C13.1944 0 17 3.80558 17 8.5ZM16 8.5C16 12.6421 12.6421 16 8.5 16C4.35786 16 1 12.6421 1 8.5C1 4.35786 4.35786 1 8.5 1C12.6421 1 16 4.35786 16 8.5Z" fill="#445058"></path>
<path d="M8.5 3C8.77614 3 9 2.77614 9 2.5C9 2.22386 8.77614 2 8.5 2C8.22386 2 8 2.22386 8 2.5C8 2.77614 8.22386 3 8.5 3Z" fill="#445058"></path>
<path d="M11.5 4C11.7761 4 12 3.77614 12 3.5C12 3.22386 11.7761 3 11.5 3C11.2239 3 11 3.22386 11 3.5C11 3.77614 11.2239 4 11.5 4Z" fill="#445058"></path>
<path d="M14 5.5C14 5.77614 13.7761 6 13.5 6C13.2239 6 13 5.77614 13 5.5C13 5.22386 13.2239 5 13.5 5C13.7761 5 14 5.22386 14 5.5Z" fill="#445058"></path>
<path d="M14.5 9C14.7761 9 15 8.77614 15 8.5C15 8.22386 14.7761 8 14.5 8C14.2239 8 14 8.22386 14 8.5C14 8.77614 14.2239 9 14.5 9Z" fill="#445058"></path>
<path d="M14 11.5C14 11.7761 13.7761 12 13.5 12C13.2239 12 13 11.7761 13 11.5C13 11.2239 13.2239 11 13.5 11C13.7761 11 14 11.2239 14 11.5Z" fill="#445058"></path>
<path d="M11.5 14C11.7761 14 12 13.7761 12 13.5C12 13.2239 11.7761 13 11.5 13C11.2239 13 11 13.2239 11 13.5C11 13.7761 11.2239 14 11.5 14Z" fill="#445058"></path>
<path d="M9 14.5C9 14.7761 8.77614 15 8.5 15C8.22386 15 8 14.7761 8 14.5C8 14.2239 8.22386 14 8.5 14C8.77614 14 9 14.2239 9 14.5Z" fill="#445058"></path>
<path d="M5.5 14C5.77614 14 6 13.7761 6 13.5C6 13.2239 5.77614 13 5.5 13C5.22386 13 5 13.2239 5 13.5C5 13.7761 5.22386 14 5.5 14Z" fill="#445058"></path>
<path d="M4 11.5C4 11.7761 3.77614 12 3.5 12C3.22386 12 3 11.7761 3 11.5C3 11.2239 3.22386 11 3.5 11C3.77614 11 4 11.2239 4 11.5Z" fill="#445058"></path>
<path d="M2.5 9C2.77614 9 3 8.77614 3 8.5C3 8.22386 2.77614 8 2.5 8C2.22386 8 2 8.22386 2 8.5C2 8.77614 2.22386 9 2.5 9Z" fill="#445058"></path>
<path d="M4 5.5C4 5.77614 3.77614 6 3.5 6C3.22386 6 3 5.77614 3 5.5C3 5.22386 3.22386 5 3.5 5C3.77614 5 4 5.22386 4 5.5Z" fill="#445058"></path>
<path d="M5.5 4C5.77614 4 6 3.77614 6 3.5C6 3.22386 5.77614 3 5.5 3C5.22386 3 5 3.22386 5 3.5C5 3.77614 5.22386 4 5.5 4Z" fill="#445058"></path>
<path fill-rule="evenodd" clip-rule="evenodd" d="M8.996 6V6.57579H9.05095C9.61403 6.57579 9.94453 6.81907 9.98887 7.26624L9.994 7.37303V7.74705H8.997V7.40502C8.997 7.33153 8.96311 7.28901 8.89227 7.27494L8.83217 7.26968H8.46553V7.26804H8.16184C8.07233 7.26804 8.02054 7.29587 8.0034 7.35403L7.997 7.40338V7.86352C7.997 7.93504 8.0181 7.97402 8.08434 8.00102L8.14286 8.01936L8.93506 8.1998L9.4006 8.30233C9.75757 8.37888 9.95431 8.54163 9.99293 8.78653L10 8.88222V9.63025C10 10.107 9.70368 10.3844 9.15984 10.4216L8.995 10.4259V11H7.996V10.4259H7.94405C7.38098 10.4259 7.04961 10.1826 7.00514 9.73672L7 9.63025V9.28822H7.997V9.59744C7.997 9.67093 8.03089 9.71345 8.10173 9.72752L8.16184 9.73278H8.83316C8.92267 9.73278 8.97446 9.70495 8.9916 9.64679L8.998 9.59744V9.08809C8.998 9.02707 8.96795 8.99439 8.89864 8.9699L8.83916 8.95276L7.86014 8.73622L7.50849 8.65584C7.29451 8.60638 7.05382 8.45195 7.00782 8.1483L7 8.0415V7.37139C7 6.89309 7.29632 6.61494 7.84096 6.57764L7.997 6.57333V6H8.996Z" fill="#445058"></path>
</svg>
