<svg width="14" height="16" viewBox="0 0 14 16" fill="none" xmlns="http://www.w3.org/2000/svg">
<path fill-rule="evenodd" clip-rule="evenodd" d="M4.59083 13.2122V12.2673H5.15271C5.40024 12.2673 5.60165 12.48 5.60165 12.7398C5.60165 12.9995 5.40024 13.2122 5.15271 13.2122H4.59083ZM10.6802 10.3275C10.4666 10.3765 10.316 10.5675 10.316 10.7868V11.3233H9.03224C8.26518 11.3233 7.64118 11.9586 7.64118 12.7398C7.64118 13.5209 8.26518 14.1562 9.03224 14.1562H10.316V14.5525C10.316 14.7802 10.1833 15.0259 9.9706 15.0259C9.67036 15.0259 8.69907 15.0334 7.68448 15.0391C6.57954 15.0475 5.42377 15.056 5.03507 15.056C4.71507 15.056 4.59083 14.9233 4.59083 14.5854V14.1562H5.15271C5.91883 14.1562 6.54283 13.5209 6.54283 12.7398C6.54283 11.9586 5.91883 11.3233 5.15271 11.3233H4.59083V10.7925C4.59083 10.5628 4.42424 10.3661 4.19836 10.3275C4.17483 10.3238 1.82848 9.90682 1.82848 8.44329L1.8266 7.70635C1.82377 6.85176 1.81812 5.73176 1.83883 5.07671C1.8426 4.94588 1.85107 4.67294 2.32071 4.66918C2.4346 4.66353 2.60871 4.688 2.66236 4.73882C2.68118 4.75671 2.68307 4.80565 2.68212 4.83388C2.67836 4.97224 2.68495 5.05788 2.68965 5.14447L2.69718 5.28565C2.69812 5.29129 2.70095 5.29694 2.70095 5.30259V5.91718C2.70095 6.82071 3.43883 7.55671 4.34895 7.55671L9.00965 7.54165C9.26942 7.54071 9.4793 7.32894 9.47836 7.06824C9.47742 6.80753 9.26754 6.59765 9.00777 6.59765H9.00589L4.34707 6.61176C3.95836 6.61176 3.64212 6.30024 3.64212 5.91718V3.31576C3.64212 1.35529 5.35977 0.944 6.80165 0.944H8.54942H8.55412C9.9066 0.944 10.8788 1.232 11.4398 1.79953C12.1937 2.56094 12.1852 3.76282 12.1777 4.82353L12.1767 8.44235C12.1767 9.94447 10.7386 10.3134 10.6802 10.3275ZM10.316 13.2122H9.03224C8.78377 13.2122 8.58236 12.9995 8.58236 12.7398C8.58236 12.48 8.78377 12.2673 9.03224 12.2673H10.316V13.2122ZM12.108 1.13412C11.3522 0.369882 10.1899 0 8.55412 0H8.54942H6.80165C4.19554 0 2.70095 1.20847 2.70095 3.31576V3.75718C2.47507 3.712 2.29342 3.72424 2.27836 3.72706C1.66001 3.72988 0.927772 4.07812 0.897654 5.04753C0.877889 5.71012 0.882595 6.84518 0.885419 7.71012L0.887301 8.44329C0.887301 10.2428 2.80071 10.9468 3.64965 11.1708V14.5854C3.64965 15.4447 4.19365 16 5.03507 16C5.42471 16 6.5833 15.9915 7.69107 15.9831C8.70283 15.9774 9.6713 15.9699 9.9706 15.9699C10.6915 15.9699 11.2572 15.3478 11.2572 14.5525V11.1304C12.0478 10.8141 13.1179 9.99247 13.1179 8.44235L13.1188 4.83012C13.1264 3.64612 13.1377 2.17318 12.108 1.13412Z" fill="#445058"></path>
</svg>
