<?xml version="1.0" encoding="utf-8"?>
<!-- Generator: Adobe Illustrator 26.4.1, SVG Export Plug-In . SVG Version: 6.00 Build 0)  -->
<svg version="1.1"
	 id="Layer_1" xmlns:dc="http://purl.org/dc/elements/1.1/" xmlns:cc="http://creativecommons.org/ns#" xmlns:rdf="http://www.w3.org/1999/02/22-rdf-syntax-ns#"
	 xmlns="http://www.w3.org/2000/svg" xmlns:xlink="http://www.w3.org/1999/xlink" x="0px" y="0px" viewBox="0 0 198 201.6"
	 style="enable-background:new 0 0 198 201.6;" xml:space="preserve">
<style type="text/css">
	.st0{fill:#FFFFFF;}
</style>
<path d="M197.9,27.4v-5.8l-2.3-1.2C193.9,19.6,154.7,0,100.2,0h-2.5C43.2,0,4,19.6,2.4,20.4L0,21.6v5.6
	C-0.3,50.4,2.4,109.3,38.4,155c29.2,37.2,56.6,45.7,59.6,46.6l1.2,0.4l1.2-0.2c1.2-0.4,29.2-8.5,59.2-46.6
	C195.5,109.4,198.4,50.5,197.9,27.4z"/>
<path class="st0" d="M99.3,195.8c-2.3-0.6-28.2-8.6-56.3-44.3C6.1,104.6,6,43.3,6.3,28.8v-3.1c0.1,0,0.1-0.1,0.1-0.1c0,0,0,0,0,0
	v-0.1l0.8-0.4c2-0.8,6.4-2.8,12.7-5c25-9.1,51.4-13.8,78-13.8h2.5C127,6.3,153.2,11,178.1,20c6.4,2.3,10.8,4.2,12.7,5l0.8,0.4v0.1
	l0.1,0.1v3.1c0.4,14.5,0.2,75.8-36.7,122.8C127,187.2,101.4,195.2,99.3,195.8z M156.9,153.1c35.3-44.8,38-102.5,37.6-125.2v-4.2
	l-0.7-0.4c-1.6-0.8-40.1-19.9-93.5-19.9h-2.6C44.2,3.5,5.8,22.6,4.1,23.4l-0.7,0.4v4C2.9,50.5,5.7,108.2,40.9,153
	c28.4,36.2,54.8,44.6,57.8,45.4l0.4,0.1l0.4-0.1C100.8,198.1,127.6,190.2,156.9,153.1z"/>
<path class="st0" d="M167.2,54.6c-13.1-13.6-14.5-15.7-14.5-21.4c0-5.5,2.4-6.2,4.8-6.2c1.5,0,3,0.3,4.4,0.7
	c9.5,2.8,9.5,7.9,9.5,11.8V45c0,0.4,0.2,0.8,0.6,1c2.4,0.7,3.5,1.2,5.9,2c0.3,0.2,0.7,0.2,1-0.1c0.3-0.2,0.5-0.5,0.5-0.8v-4.6
	c0-5.8,0-15.5-16.9-20.4c-11.9-3.4-18,0.2-18,10.6c0,8.5,5.3,13.6,14,22.1l1.7,1.7c10.3,10.2,12.4,13.4,12.4,19.8
	c0,2.4-0.4,4-1.1,4.9c-0.7,1.1-1.8,1.4-3.6,1.4c-1.8,0-3.5-0.3-5.2-0.8c-4.6-1.3-7.8-3.1-9.8-5.3c-2.4-2.6-2.4-4.9-2.4-9.5v-4.8
	c0-0.5-0.2-1-0.7-1c-2.6-0.6-3.8-0.8-6.2-1.3c-0.3-0.1-0.6,0-0.8,0.2c-0.2,0.2-0.3,0.5-0.4,0.8v8.6c0,8,6.7,14.3,19.2,17.9
	c3,1,6.1,1.5,9.2,1.6c9.7,0,9.7-8,9.7-11.4C180.5,68.8,175.9,63.6,167.2,54.6z M140.8,17.8c-12.5-2.3-25.2-3.5-37.9-3.6
	c-0.5-0.1-1,0.2-1.1,0.7c0,0.1,0,0.3,0,0.4v3.8c0,0.6,0.5,1,1.1,1.1c5.9,0,9,0.2,14.6,0.6v56.9c0,0.6,0.4,1,1,1.1
	c2.5,0.2,3.7,0.2,6.2,0.6h0.1c0.3,0,0.5-0.1,0.6-0.4c0.3-0.1,0.4-0.4,0.4-0.7V21.6c5.6,0.6,8.9,1.1,14.8,2.2c0.3,0,0.6-0.1,0.8-0.2
	c0.2-0.2,0.4-0.5,0.4-0.8v-3.8C141.6,18.3,141.3,17.9,140.8,17.8L140.8,17.8z M96.5,14.3c-10.7,0.1-21.4,1.1-31.9,2.9
	c-0.5,0-1,0.4-1,0.9c0,0,0,0,0,0v61.7c0,0.3,0.2,0.5,0.4,0.7c0.2,0.1,0.5,0.2,0.7,0.2h0.1c10.4-1.7,21-2.6,31.6-2.8
	c0.6-0.1,1-0.5,1-1.1v-3.8c0-0.3-0.1-0.5-0.4-0.7c-0.1-0.3-0.4-0.4-0.7-0.4c-8.2,0.1-16.4,0.7-24.5,1.8V49.4
	c6.6-0.9,13.3-1.5,20-1.7c0.5,0,0.9-0.3,1-0.8c0-0.1,0-0.1,0-0.2V43c0-0.3-0.1-0.5-0.2-0.7c-0.2-0.2-0.5-0.3-0.7-0.2
	c-6.7,0.1-13.4,0.7-20,1.6V22c8.2-1.1,16.4-1.8,24.6-1.8c0.5,0.1,1-0.3,1.1-0.9c0,0,0-0.1,0-0.1v-3.8c0-0.3-0.1-0.6-0.4-0.7
	C97,14.4,96.8,14.3,96.5,14.3z M55.6,18.7c-2.4,0.5-3.6,0.7-6,1.3c-0.5,0-0.9,0.5-0.8,1l0.5,44.8c0,3,0.1,5.8,0.2,8.3
	c-6-15.6-12.4-31.7-18.8-47.9c-0.2-0.5-0.7-0.7-1.2-0.6c-3.6,1.2-5.4,1.8-8.9,3.2c-0.4,0.1-0.7,0.5-0.7,1v61.7
	c0,0.3,0.2,0.6,0.5,0.7c0.1,0.2,0.4,0.2,0.6,0.2c0.1,0,0.3,0,0.4-0.1c2.2-0.8,3.4-1.2,5.5-2c0.4-0.1,0.8-0.5,0.7-1
	c-0.1-14.5-0.1-29.2-0.2-43.7c0-3.8,0-6-0.1-8.8C33.4,53,39.6,68.8,45.5,83.8c0.1,0.5,0.6,0.8,1.1,0.6c0,0,0.1,0,0.1,0
	c3.7-0.8,5.6-1.3,9.4-2c0.5-0.1,0.8-0.5,0.8-1V19.7c0-0.3-0.1-0.6-0.4-0.8C56.3,18.7,55.9,18.6,55.6,18.7z"/>
<path class="st0" d="M133.6,158.3c-0.6,0.5-1.2,0.8-1.9,1.3c-1.7,1.2-3.5,2.2-5.2,3.2c-0.8,0.6-1.7,1.1-2.5,1.6
	c-6.1,3.8-13.6,8-21.4,10.4c-2.1,0.6-4.3,1.2-6.5,1.6c-1.8,0.3-3.7,0.5-5.5,0.5h-0.4c-2.3,0-4.5-0.2-6.7-0.6
	c8.5,3,17.7,3.4,26.5,1.3c5.1-1.3,9.9-3.4,14.3-6.2c4.3-3.5,7.6-8,9.5-13.2C133.7,158.2,133.6,158.2,133.6,158.3z M91.8,174.6
	c5-0.6,9.9-2.1,14.4-4.4c0.8-0.3,1.5-0.7,2.2-1.2c0.6-0.2,1.2-0.6,1.8-0.8c4.2-2.2,8.6-4.6,14-7.6c2-1,3.8-2,5.8-3.1l2.2-1.2
	c0.8-0.5,1.7-0.8,2.4-1.3c0.1-0.1,0.1-0.1,0.2-0.1c0.7-2.7,1.2-5.5,1.4-8.3c-5.4,2.6-13.4,5-25.2,7.4c-15,3-29.8,1.7-43-4
	c-8.9-3.7-13.1-8.9-14.8-11.6c0.2,2,0.6,4,1.1,6c2.9,11,9.7,20.7,19.2,27v-0.1l1.2,0.7c1.3,0.7,2.6,1.3,4,1.7
	c2.8,0.8,5.7,1.2,8.6,1.2C88.8,174.8,90.3,174.7,91.8,174.6z M138.9,155.2c-0.1-0.1-0.1-0.1-0.2-0.1c-0.4,0-0.8,0.2-1.1,0.4
	c-0.1,0.1-0.2,0.2-0.4,0.2c-0.1,0.1-0.2,0.1-0.4,0.2c-1.1,3-2.6,5.9-4.4,8.5c2.6-2.7,4.8-5.6,6.6-8.9h-0.1V155.2z M140.7,143.8
	c-0.2,0.2-0.4,0.2-0.5,0.5c-0.3,0.1-0.5,0.3-0.7,0.5c-0.3,2.9-0.8,5.7-1.7,8.5c1.4-0.5,2,0.1,2.2,0.5c0,0.1,0,0.1,0.1,0.1
	c2.4-4.7,4-9.8,4.6-15C143.8,140.8,142.4,142.5,140.7,143.8L140.7,143.8z M139.5,141.4c0.1-0.1,0.2-0.1,0.4-0.2
	c2.5-1.9,4.2-4.6,5-7.7c0-3.7-0.5-7.4-1.4-11c0-0.2-0.1-0.4-0.2-0.5c-0.4,3.6-2.2,6.9-4.9,9.4C139.1,134.6,139.5,138,139.5,141.4
	L139.5,141.4z M70.7,146.9c10.9,3.6,16.9,4.7,24.8,4.7c2.9,0,6.2-0.1,10.3-0.5c11.6-1,23.9-4.8,30.5-8c0-3.2-0.3-6.4-1-9.6
	c-2.1,1.2-4.4,1.8-6.8,1.7c-2.8,0-6-0.5-11.4-1.8c-6.4-1.6-15.4-7-23.4-11.6c-4.3-2.6-8.5-5-11.9-6.7c-13.1-6.5-20.5-5.5-22.4-5.2
	c-4.7,7.9-7,17.1-6.4,26.3C54,137.3,58.5,142.8,70.7,146.9L70.7,146.9z M77.4,109.6c5.6,2.5,11,5.2,16.3,8.3
	c9.7,5.2,19.7,10.6,26.5,12.2c6,1.6,10.9,1.3,14.4-0.4v-0.2c-0.1-0.2-0.1-0.5-0.2-0.7c-2.9-12.4-18.4-39.5-45.2-39.5
	c-1.1,0-2.2,0.1-3.4,0.1c-10,2.8-18.8,9.1-24.7,17.6c1.3-0.4,2.6-0.6,4-0.6C68.5,106.6,72.6,107.6,77.4,109.6L77.4,109.6z
	 M137.4,127.8c0.6-0.7,1.1-1.5,1.6-2.4c3.2-6.2,0.5-13.2-0.8-15.6C129,94.8,112,86.3,94.5,88C112.8,88.9,130.6,105.4,137.4,127.8
	L137.4,127.8z"/>
<path class="st0" d="M117,142.6c0-3.4,0-8.3-4-12.1c0.5-0.7,0.8-1.5,1.1-2.4c0.6-1.8,0.8-3.7,0.7-5.6V113c-0.1-3.5-0.6-7.1-3.5-10.2
	c-2.5-2.9-6.4-4.4-10.9-4.4H88c-1.4,0-2.7,0.6-3.7,1.6c-0.9,1-1.5,2.3-1.4,3.6l0.1,60.5c0,1.8,0.9,3.5,2.5,4.4
	c0.8,0.5,1.8,0.8,2.8,0.8h12.7c4.2,0.1,8.2-1.3,11.4-4h0.1c4.2-3.7,4.6-8.2,4.7-12.4v-0.1L117,142.6z"/>
<path d="M100.2,127.7c-1,0.4-1.6,0.4-3.8,0.5H94c-0.4,0-0.5-0.1-0.5-0.5v-19.4c0-0.2,0.2-0.5,0.4-0.5c0,0,0.1,0,0.1,0h3.8
	c1.7-0.1,3.4,0.2,4.9,0.8c0.5,0.3,0.9,0.8,1.1,1.4c0.3,1.1,0.5,2.1,0.5,3.2v8.2C104.2,123.2,104.1,126.5,100.2,127.7z M104.7,159
	c-1,0.7-2.2,1.1-5,1.2h-5.4c-0.4,0-0.6-0.4-0.6-0.7v-24.1c0-0.1,0-0.4,0.4-0.4h2.5c2.6,0.1,5.4,0.2,7.2,1.4c1,0.6,1.8,1.6,2.2,2.8
	c0.3,1.3,0.5,2.5,0.5,3.8v8.9C106.5,155.9,106.2,157.8,104.7,159L104.7,159z M113.8,143c0-3.5,0-7.6-3.5-10.4
	c-0.8-0.7-1.7-1.2-2.6-1.6c1.6-1.1,2.8-2.7,3.4-4.6c0.4-1.5,0.6-3,0.6-4.6v-9.6c-0.1-2.6-0.4-5.8-2.6-8.2c-1.8-2-4.8-3.1-8.4-3.1
	H87.5c-0.4,0-0.8,0.2-1.1,0.5c-0.2,0.3-0.4,0.7-0.4,1.1v63c0,0.5,0.3,1,0.7,1.3c0.3,0.2,0.5,0.2,0.8,0.2h13.2c3.4,0.1,6.7-1,9.4-3.1
	c3.1-2.9,3.5-6.2,3.6-10.1L113.8,143z"/>
</svg>
