<svg width="48" height="33" viewBox="0 0 48 33" fill="none" xmlns="http://www.w3.org/2000/svg">
<mask id="mask0_4_224" style="mask-type:alpha" maskUnits="userSpaceOnUse" x="0" y="0" width="48" height="33">
<path fill-rule="evenodd" clip-rule="evenodd" d="M0 0.445312H47.5172V32.1357H0V0.445312Z" fill="white"/>
</mask>
<g mask="url(#mask0_4_224)">
<path fill-rule="evenodd" clip-rule="evenodd" d="M5.01229 22.9588C8.31588 20.8498 9.35505 18.474 9.35505 18.474L0 19.8165L3.97559 12.7561L11.9634 12.0836C11.9634 12.0836 15.071 9.31047 19.8824 7.32218C19.8824 7.32218 20.3842 6.44729 23.132 4.86577C23.132 4.86577 25.6523 3.38172 28.5224 2.43212C28.5224 2.43212 30.4676 1.76309 31.0416 1.72944L30.8729 1.11088L34.5407 0.796653L34.6352 0.445312C34.6352 0.445312 36.5498 0.574467 37.6478 1.06041L37.8641 0.772405C37.8641 0.772405 40.4264 1.95014 42.3335 4.84399C42.3335 4.84399 44.1833 4.74107 45.839 5.53331C45.839 5.53331 47.5937 6.23104 47.5146 8.26783C47.5146 8.26783 47.5027 10.8668 46.7258 13.4424C46.7258 13.4424 46.6065 13.8457 46.4957 14.0862C46.4957 14.0862 46.3344 14.4143 46.0231 14.8285C46.0231 14.8285 45.1541 15.7232 44.8172 16.511C44.8172 16.511 44.6346 17.035 44.2718 17.9871C44.2718 17.9871 43.9927 19.2964 42.0906 19.3692C42.0906 19.3692 40.2393 21.7118 39.4674 22.3843L39.4021 21.8152C39.4021 21.8152 38.1105 23.0117 36.9897 23.7184L37.3682 20.4019C37.3682 20.4019 37.4613 19.8096 37.0852 19.767L36.1178 19.7438C36.1178 19.7438 36.4345 21.74 36.052 22.6629C36.052 22.6629 35.8085 24.1118 33.5604 24.8016C33.5604 24.8016 31.8235 25.3543 29.8362 25.5097L29.4092 25.4419L26.2807 26.7241L27.1952 23.4437C27.1952 23.4437 26.0229 23.5625 25.922 23.4155L22.4383 24.909L23.8075 20.9854L24.7457 20.4658L24.4464 20.059L22.5204 20.0763L21.8118 20.6276C20.1758 20.2015 18.5854 20.3163 18.5854 20.3163L10.4902 26.8864L8.46186 31.3702L6.03959 28.1314L6.79769 27.1397L6.50969 26.923L5.41163 27.787L3.78606 32.1654L1.392 28.7866L2.00759 27.4134L1.87151 26.5722C2.58408 26.1016 3.04528 25.7863 3.40553 25.3816C3.60198 25.1282 3.71035 25.0401 3.93847 24.6141C4.15373 24.0935 4.16165 23.5298 4.40165 23.3512C4.70202 23.1473 4.93163 23.0103 5.01229 22.9588Z" fill="#FFFFFE"/>
</g>
<path fill-rule="evenodd" clip-rule="evenodd" d="M4.42985 13.4636L1.33459 18.9183L41.2741 12.9658C41.2741 12.9658 39.886 11.9103 41.8981 10.2412L4.42985 13.4636Z" fill="#B32534"/>
<path fill-rule="evenodd" clip-rule="evenodd" d="M44.9715 9.48161C44.9715 9.48161 41.853 11.6139 42.9343 13.4532C42.9343 13.4532 41.8026 14.0802 43.053 14.9625C43.053 14.9625 41.1202 15.8325 41.6313 13.4453L10.2314 18.1968C10.2314 18.1968 9.55992 21.0402 5.1068 23.7327C5.1068 23.7327 4.78021 23.9242 4.75101 24.2814C4.75101 24.2814 4.78268 24.7273 4.3774 25.2667C4.3774 25.2667 3.87513 26.1421 2.71175 26.8863L2.79489 27.4692L2.25006 28.7197L3.58416 30.6353L4.79109 27.3772L7.1807 25.5418C7.1807 25.5418 9.51934 21.8819 13.3653 20.4494C13.3653 20.4494 16.7584 19.0014 21.7128 19.8214L22.1651 19.3874L27.9009 19.2607C27.9009 19.2607 28.1166 19.3102 27.9726 19.427C27.9726 19.427 26.8429 20.296 25.6053 20.4078L25.7201 20.7606C25.7201 20.7606 25.7537 20.8843 25.6612 20.914L24.4597 21.391L23.665 23.5936L25.9195 22.6123L26.0457 22.7073C26.0457 22.7073 28.0078 22.8291 30.96 22.2318C30.96 22.2318 33.0077 21.8265 33.5777 19.1746L37.4746 19.0044C37.4746 19.0044 38.2867 19.1776 38.1847 19.9313L37.9056 22.1407L39.6881 20.5528L39.8118 20.9694C39.8118 20.9694 41.1622 19.5072 41.5086 18.6704C41.5086 18.6704 42.9912 18.7001 43.3569 18.1008C43.3569 18.1008 43.5246 17.9326 43.9987 16.6282C43.9987 16.6282 44.2209 15.7117 45.1368 14.8101C45.1368 14.8101 45.8459 14.146 46.2398 12.4027C46.2398 12.4027 46.7154 9.876 46.7114 9.39451C46.7114 9.39451 47.2226 6.89505 45.5099 6.15872C45.5099 6.15872 44.2372 5.45653 41.8545 5.6515C41.8545 5.6515 41.3795 3.99328 38.0952 1.71996L37.8567 2.07526C37.8567 2.07526 36.7343 1.3028 35.1454 1.32062L35.0647 1.54132C35.0647 1.54132 34.0993 1.53439 31.9932 1.7541L32.1892 2.33703C32.1892 2.33703 27.8459 2.53843 21.6846 6.66346L21.5723 7.00095L20.7889 7.36961L21.2071 7.59921C21.2071 7.59921 16.5001 9.29901 13.0748 12.1018L44.9715 9.48161Z" fill="#27366F"/>
<path fill-rule="evenodd" clip-rule="evenodd" d="M33.9692 19.6638L35.3166 19.6484C35.3166 19.6484 35.5863 21.4269 35.4265 22.2201C35.4265 22.2201 35.1607 23.3994 33.9568 23.8606C33.9568 23.8606 32.1833 24.6112 29.524 24.7815L29.3953 24.6711L27.3793 25.5218L28.0414 23.1772C28.0414 23.1772 30.7438 22.9684 31.5603 22.7239C31.5603 22.7239 33.6554 22.3122 33.9692 19.6638Z" fill="#27366F"/>
<path fill-rule="evenodd" clip-rule="evenodd" d="M17.3706 20.3604C17.3706 20.3604 12.5889 20.303 9.31398 24.1603C9.31398 24.1603 9.30507 25.5597 7.60825 26.5089L7.67109 26.9507L6.86499 28.0617L8.29559 29.9787L9.90779 26.4064L17.3706 20.3604Z" fill="#27366F"/>
</svg>
