<svg width="16" height="16" viewBox="0 0 16 16" fill="none" xmlns="http://www.w3.org/2000/svg">
<path fill-rule="evenodd" clip-rule="evenodd" d="M14.0781 13.0953C13.4344 13.3607 12.7191 13.1179 12.1647 12.4487C11.6951 11.8821 11.5821 11.4322 11.4635 10.956C11.2762 10.2087 11.0842 9.43505 9.61412 8.61434C8.64188 8.07222 8.37271 7.15552 8.53459 6.53528C8.68329 5.97057 9.16988 5.64681 9.87106 5.64681H9.87765H9.87859C10.1374 5.64681 10.3482 5.43693 10.3492 5.17716C10.3492 4.91552 10.1487 4.70846 9.872 4.70469C8.74165 4.70469 7.88141 5.31457 7.62447 6.2981C7.51718 6.70846 7.52471 7.13293 7.63106 7.54234C7.29976 7.76257 3.45882 10.3715 0.941176 13.915V3.97246C1.94447 3.07928 7.61788 -1.56825 12.3849 2.68587C12.4979 2.78752 12.6513 2.8261 12.7981 2.79505C12.9449 2.7621 13.0682 2.66234 13.1294 2.52493C13.3054 2.12116 13.5511 1.86328 13.8805 1.7381C14.0471 1.6741 14.2212 1.64963 14.3887 1.64775C13.7873 2.16822 13.1304 2.95787 13.2339 3.87363C13.824 6.03269 14.9638 10.3743 15.0504 11.3513C15.1304 12.2473 14.6193 12.8732 14.0781 13.0953ZM15.9878 11.2694C15.872 9.96399 14.2118 3.88399 14.1553 3.69952C14.0753 2.96257 15.3148 2.0741 15.7562 1.82093C15.9087 1.7334 16 1.56775 15.9925 1.39175C15.984 1.21669 15.8805 1.05952 15.7205 0.986104C15.6753 0.964457 14.5835 0.467516 13.5529 0.855281C13.1567 1.00493 12.8273 1.25905 12.5694 1.61293C6.87435 -2.85013 0.214588 3.35787 0.146824 3.42281C0.0527059 3.51128 0 3.63552 0 3.76446V15.5292C0 15.7428 0.144 15.9301 0.352 15.9838C0.391529 15.995 0.431059 15.9998 0.470588 15.9998C0.638118 15.9998 0.796235 15.9103 0.880941 15.7598C2.96659 12.0421 7.20659 8.98234 8.02824 8.4101C8.30212 8.81857 8.68518 9.17434 9.15576 9.43693C10.2701 10.059 10.3878 10.5306 10.5506 11.1838C10.6767 11.6892 10.8339 12.3179 11.4391 13.0501C12.2588 14.0402 13.4061 14.3875 14.4367 13.9668C15.4701 13.5405 16.0941 12.4553 15.9878 11.2694L12.7059 5.64706C12.4461 5.64706 12.2353 5.85788 12.2353 6.11765C12.2353 6.37741 12.4461 6.58918 12.7059 6.58918C12.9656 6.58918 13.1765 6.37741 13.1765 6.11765C13.1765 5.85788 12.9656 5.64706 12.7059 5.64706" fill="#131314"></path>
</svg>
