<svg width="105" height="30" viewBox="0 0 105 30" fill="none" xmlns="http://www.w3.org/2000/svg">
<path d="M39.8913 23.0431H38.6948V25.9367H37.4418V18.1748H40.6451C42.3292 18.1748 43.2827 19.1721 43.2827 20.6373C43.2827 21.9126 42.5622 22.7434 41.3324 22.9765L43.6488 25.9367H42.1079L39.8913 23.0431ZM38.6948 21.9342H40.512C41.5421 21.9342 42.0197 21.4015 42.0197 20.6472C42.0197 19.893 41.5321 19.3719 40.512 19.3719H38.6948V21.9342Z" fill="#0070EB"></path>
<path d="M46.1533 19.3719V21.3798H49.6894V22.5769H46.1533V24.7396H49.9657V25.9367H44.9002V18.1748H49.9657V19.3719H46.1533Z" fill="#0070EB"></path>
<path d="M57.1044 23.7091C57.1044 25.4056 55.5967 26.0716 54.2122 26.0716C52.0406 26.0716 51.0871 24.8745 50.8758 23.5326H52.1388C52.3718 24.4316 52.9708 24.8962 54.2006 24.8962C55.2423 24.8962 55.8414 24.4866 55.8414 23.7657C55.8414 23.0447 55.209 22.9232 53.7679 22.6019C52.2603 22.2689 51.0854 21.8477 51.0854 20.3958C51.0854 18.8541 52.4483 18.045 53.9343 18.045C55.8846 18.045 56.7832 19.0539 57.0046 20.2843H55.7415C55.5202 19.6416 54.9877 19.2204 53.946 19.2204C52.9043 19.2204 52.3385 19.6866 52.3385 20.3625C52.3385 20.917 52.7811 21.0951 54.0675 21.3715C56.0294 21.8044 57.1044 22.2139 57.1044 23.7107V23.7091Z" fill="#0070EB"></path>
<path d="M59.7203 19.3719V21.3798H63.2565V22.5769H59.7203V24.7396H63.5327V25.9367H58.4673V18.1748H63.5327V19.3719H59.7203Z" fill="#0070EB"></path>
<path d="M69.8179 23.8522H66.4482L65.6611 25.9367H64.3315L67.3351 18.1748H68.931L71.9346 25.9367H70.605L69.8179 23.8522ZM69.3636 22.6651L68.1339 19.4152L66.9041 22.6651H69.3653H69.3636Z" fill="#0070EB"></path>
<path d="M75.6373 23.0431H74.4408V25.9367H73.1877V18.1748H76.3911C78.0751 18.1748 79.0287 19.1721 79.0287 20.6373C79.0287 21.9126 78.3081 22.7434 77.0784 22.9765L79.3948 25.9367H77.8538L75.6373 23.0431ZM74.4408 21.9342H76.258C77.288 21.9342 77.7656 21.4015 77.7656 20.6472C77.7656 19.893 77.278 19.3719 76.258 19.3719H74.4408V21.9342Z" fill="#0070EB"></path>
<path d="M80.3467 22.0558C80.3467 19.7599 82.0424 18.0417 84.3471 18.0417C86.1427 18.0417 87.5721 19.1289 88.0597 20.7355H86.7184C86.3091 19.8265 85.4321 19.2388 84.3355 19.2388C82.7513 19.2388 81.6097 20.4358 81.6097 22.0558C81.6097 23.6758 82.7513 24.8729 84.3355 24.8729C85.4321 24.8729 86.3091 24.2852 86.7184 23.3761H88.0597C87.5721 24.9844 86.1427 26.0716 84.3471 26.0716C82.0424 26.0716 80.3467 24.3534 80.3467 22.0575V22.0558Z" fill="#0070EB"></path>
<path d="M95.909 18.1748V25.9367H94.656V22.5436H90.6772V25.9367H89.4241V18.1748H90.6772V21.3465H94.656V18.1748H95.909Z" fill="#0070EB"></path>
<path d="M6.48824 11.5218C8.49179 10.5927 10.6018 10.0283 12.6753 9.78023C12.8999 9.75026 12.9915 9.90344 12.9698 10.0816C12.7069 11.6749 12.5288 13.2932 12.459 14.9249C12.444 15.1097 12.3425 15.2346 12.1345 15.2728C10.9813 15.4976 9.86133 15.8539 8.62325 16.4183C9.73652 18.353 11.0828 20.1245 12.5671 21.6096C12.7369 21.7877 12.8384 21.9725 12.885 22.2755C13.271 24.7596 13.945 27.267 14.8419 29.6412C14.8952 29.7727 14.8952 29.866 14.8186 29.9426C14.7337 30.0191 14.6023 30.0191 14.4791 29.9426C5.50644 24.4816 0.0931884 14.6785 0 4.39417C0 4.1461 0.084868 3.96129 0.294542 3.84475C5.05713 1.17586 10.4171 -0.107802 15.8004 0.00707837C16.0401 0.015403 16.1249 0.22352 16.0317 0.416652C15.2896 1.95671 14.6705 3.52675 14.1829 5.09844C14.128 5.28491 14.0132 5.37649 13.8118 5.38481C10.9347 5.53132 8.13568 6.18231 5.56801 7.24953C5.75438 8.71134 6.07056 10.1432 6.48824 11.5201M16.4261 5.39979C16.2481 5.38481 16.1249 5.22165 16.1782 5.0435C16.7423 3.40354 17.3929 1.85515 18.1268 0.416652C18.2117 0.246829 18.3581 0.176901 18.5595 0.200211C22.6115 0.656402 26.4472 1.9334 29.8652 3.84475C30.0749 3.96129 30.1664 4.1461 30.1598 4.39417C30.0899 14.1274 25.2174 23.4443 17.0119 29.0768C16.8571 29.185 16.6558 29.1234 16.5859 28.9453C15.9901 27.3436 15.5026 25.7186 15.1548 24.1486C15.1082 23.9388 15.1548 23.7773 15.3178 23.6541C20.2834 19.7382 23.763 13.8976 24.5984 7.24953C22.069 6.20562 19.3316 5.55463 16.4245 5.39979M37.4318 4.3742C37.4318 4.27097 37.5 4.20104 37.6048 4.20104H45.436C45.5325 4.20104 45.6091 4.30427 45.5741 4.39417L44.8702 6.33382C44.8286 6.44371 44.7521 6.49199 44.6356 6.49199H39.8464V8.59147H43.8418C43.9383 8.59147 44.0149 8.69469 43.9799 8.7846L43.2893 10.6909C43.2477 10.8092 43.1712 10.8558 43.0547 10.8558H39.8464V14.3838C39.8464 14.487 39.7781 14.5569 39.6733 14.5569H37.6032C37.5 14.5569 37.4301 14.4887 37.4301 14.3838V4.3742H37.4318ZM47.9471 4.36088C47.9887 4.25099 48.0636 4.20271 48.1817 4.20271H50.9557C51.0722 4.20271 51.1488 4.25099 51.1904 4.36088L54.8197 14.3638C54.8547 14.4537 54.7781 14.5569 54.6816 14.5569H52.4884C52.3719 14.5569 52.302 14.502 52.2604 14.3921L51.5631 12.3759H47.5477L46.8505 14.3921C46.8155 14.502 46.7406 14.5569 46.6225 14.5569H44.4558C44.3593 14.5569 44.2828 14.4537 44.3177 14.3638L47.9471 4.36088ZM50.7893 10.1182L49.5546 6.54194L48.3198 10.1182H50.7893ZM55.8332 4.3742C55.8332 4.27097 55.9014 4.20104 56.0062 4.20104H58.4141C58.5389 4.20104 58.6138 4.24267 58.6771 4.35255L62.2781 10.4828V4.3742C62.2781 4.27097 62.3464 4.20104 62.4512 4.20104H64.4797C64.5829 4.20104 64.6528 4.2693 64.6528 4.3742V14.3838C64.6528 14.487 64.5845 14.5569 64.4797 14.5569H62.0984C61.9736 14.5569 61.8987 14.5153 61.8355 14.4054L58.2061 8.22685V14.3854C58.2061 14.4887 58.1379 14.5586 58.0331 14.5586H56.0046C55.9014 14.5586 55.8315 14.4903 55.8315 14.3854V4.3742H55.8332ZM70.5436 12.2643C72.1861 12.2643 73.4275 11.0223 73.4275 9.37898C73.4275 7.7357 72.1861 6.49365 70.5436 6.49365H66.866C66.7628 6.49365 66.6929 6.42539 66.6929 6.3205V4.3742C66.6929 4.27097 66.7612 4.20104 66.866 4.20104H70.5436C73.5722 4.20104 75.842 6.42373 75.842 9.37898C75.842 12.3342 73.5722 14.5569 70.5436 14.5569H66.866C66.7628 14.5569 66.6929 14.4887 66.6929 14.3838V9.54381C66.6929 8.89449 66.8993 8.39168 67.2654 8.02539C67.5965 7.69407 68.1141 7.47263 68.5767 7.47263H68.9361C69.0393 7.47263 69.1092 7.5409 69.1092 7.64579V12.2643H70.5453H70.5436ZM77.333 10.4695V4.3742C77.333 4.27097 77.4029 4.20104 77.5061 4.20104H79.5762C79.6794 4.20104 79.7493 4.2693 79.7493 4.3742V10.4712C79.7493 11.645 80.5697 12.4591 81.7362 12.4591C82.9027 12.4591 83.7231 11.645 83.7231 10.4712V4.3742C83.7231 4.27097 83.7913 4.20104 83.8962 4.20104H85.9663C86.0695 4.20104 86.1394 4.2693 86.1394 4.3742V10.4712C86.1394 13.0119 84.3455 14.7517 81.7362 14.7517C79.1269 14.7517 77.333 13.0119 77.333 10.4712M95.1753 8.20687C95.2785 8.20687 95.3484 8.27513 95.3484 8.38002V10.2997C95.3484 10.4029 95.2801 10.4728 95.1753 10.4728H90.6007V12.2676H95.4515C95.5547 12.2676 95.6246 12.3376 95.6246 12.4408V14.3871C95.6246 14.4903 95.5564 14.5603 95.4515 14.5603H88.3576C88.2544 14.5603 88.1845 14.492 88.1845 14.3871V4.3742C88.1845 4.27097 88.2527 4.20104 88.3576 4.20104H95.4515C95.5547 4.20104 95.6246 4.2693 95.6246 4.3742V6.3205C95.6246 6.42373 95.5564 6.49365 95.4515 6.49365H90.6007V8.2052H95.1753V8.20687ZM100.059 12.266H104.827C104.93 12.266 105 12.3359 105 12.4391V14.3854C105 14.4887 104.932 14.5586 104.827 14.5586H97.8162C97.713 14.5586 97.6431 14.4903 97.6431 14.3854V4.3742C97.6431 4.27097 97.7113 4.20104 97.8162 4.20104H99.8863C99.9895 4.20104 100.059 4.2693 100.059 4.3742V12.266Z" fill="#0070EB"></path>
</svg>
