<?xml version="1.0" encoding="utf-8"?>
<!-- Generator: Adobe Illustrator 26.4.1, SVG Export Plug-In . SVG Version: 6.00 Build 0)  -->
<svg version="1.1"
	 id="Layer_1" xmlns:dc="http://purl.org/dc/elements/1.1/" xmlns:cc="http://creativecommons.org/ns#" xmlns:rdf="http://www.w3.org/1999/02/22-rdf-syntax-ns#"
	 xmlns="http://www.w3.org/2000/svg" xmlns:xlink="http://www.w3.org/1999/xlink" x="0px" y="0px" viewBox="0 0 208.4 187.7"
	 style="enable-background:new 0 0 208.4 187.7;" xml:space="preserve">
<style type="text/css">
	.st0{fill:#CE1141;}
	.st1{fill:none;stroke:#CE1141;stroke-width:0.24;}
	.st2{fill:#FFFFFF;}
</style>
<g>
	<path d="M208.3,39.6C207.4,25.1,201,12,197.1,4.2l-0.5-0.8L195,0l0.4,3.7c0.4,5.2,1.6,22.9-3.7,33.1c-6.6,13.6-25.9,12.2-32.3,11.9
		H159c-10.4-0.7-44.4-1.9-54.8-1.9c-13.7,0.1-28.8,1.2-41,2.2c-6,0.5-11.2,0.8-14.6,1c-0.4,0-0.7,0.1-1.3,0.1
		c-17,1.6-27.8-3.5-32-15c-2.5-7.1-2.5-21.1-2.5-27.8V2.4l-1.3,2.4c-6.1,10.9-9.9,23-11.2,35.4c-1.2,21.6,10.1,29.4,18.6,33.2
		c9,4.2,18.1,4.8,21.1,5h0.1c0.7,0.1,1.4,0.1,2,0.1c1,0,2,0,3,0.2c-1.7,0.4-3.8,0.7-5.6,1c-2,0.5-4,0.7-4.9,1
		c-2,0.5-10.7,2.4-15.2,4.1c-3.8,1.3-8.2,3.4-8.3,3.4l-0.7,0.4l0.6,0.7c0,0,1.4,1.9,2.9,3.5c5.9,5.3,13.7,7.9,21.6,7.1
		c8-1,12.5-3,14.2-3.8c0.9,3.1,1.9,6.1,3.1,9c3.6,9,12,26.4,15.1,32.4c2.5,4.9,5,9.2,6.7,12.1l0.6,1.1c-0.5,1.6-1.5,2.9-2.9,3.8
		c-0.2,0.2-0.4,0.5-0.6,0.6l-0.1,0.2v0.4c-0.1,1.6-0.5,16.8,9.7,27.8l0.1,0.1h0.1c5.2,2,11.8,4.1,22.6,4.1c10.9,0,20.2-2.6,23.4-4.2
		l0.1-0.1l0.1-0.1c7.1-8.4,10.4-21.2,10.4-25.8v-0.2l-0.2-0.2l-0.5-0.5c-1.7-1.5-2.9-3.5-3.4-5.6c1-1.4,2.6-5,4.1-7.9
		c0.5-1.3,1.1-2.5,1.8-3.7c3-6,11.8-25,15.4-33.8c2.2-5.8,3.4-8.5,4-9.7c1.6,0.8,5.8,2.8,13.7,3.6c10.2,1,19.9-5.8,22.7-9.6
		c0.5-0.6,1.2-1.4,1.3-1.6l0.6-0.7l-0.8-0.4c-0.1,0-0.4-0.1-2-0.7l-5.6-1.8l-5.6-1.9c-1.6-0.5-8.5-2-13.4-3.1l-3.8-0.8l1.2-0.2
		C178.9,75.8,210.1,70.4,208.3,39.6z"/>
	<path class="st0" d="M11.4,8.4c-0.4,8-0.2,16.8,1.6,24.5c-1.6-1.7-3.4-3.4-5.2-4.9c-1.7,1.8-3.1,3.7-4.8,5.4
		C4.7,24.7,7.5,16.3,11.4,8.4z"/>
	<path class="st1" d="M11.4,8.4c-0.4,8-0.2,16.8,1.6,24.5c-1.6-1.7-3.4-3.4-5.2-4.9c-1.7,1.8-3.1,3.7-4.8,5.4
		C4.7,24.7,7.5,16.3,11.4,8.4z"/>
	<path class="st0" d="M205.2,29.8l0.5,2.2l-4.2-3c-1.9,0.8-3.7,2-5.5,2.9c1.3-7.9,1.7-15.9,1.2-23.9
		C200.8,14.8,202.9,22.2,205.2,29.8z"/>
	<path class="st1" d="M205.2,29.8l0.5,2.2l-4.2-3c-1.9,0.8-3.7,2-5.5,2.9c1.3-7.9,1.7-15.9,1.2-23.9
		C200.8,14.8,202.9,22.2,205.2,29.8z"/>
	<path class="st0" d="M104.4,105.8c4.3,6.7,12.4,8.6,19.8,6.7c2.7-0.6,5.4-1.5,7.9-2.8c-2.6,7.3-3.8,15-3.7,22.8
		c0,6.7,1.1,13.4,3.2,19.8c-1.1-0.2-2-1.1-3.2-1.6c-14.8-7.4-35.5-7.2-50,0.5c0.7-2.3,1.4-4.9,2-7.3c2.2-11.2,0.6-22.8-3.2-33
		c7.8,3.2,19.2,4,25.6-3.2C103.2,107.1,103.7,106.4,104.4,105.8z"/>
	<path class="st1" d="M104.4,105.8c4.3,6.7,12.4,8.6,19.8,6.7c2.7-0.6,5.4-1.5,7.9-2.8c-2.6,7.3-3.8,15-3.7,22.8
		c0,6.7,1.1,13.4,3.2,19.8c-1.1-0.2-2-1.1-3.2-1.6c-14.8-7.4-35.5-7.2-50,0.5c0.7-2.3,1.4-4.9,2-7.3c2.2-11.2,0.6-22.8-3.2-33
		c7.8,3.2,19.2,4,25.6-3.2C103.2,107.1,103.7,106.4,104.4,105.8z"/>
	<path class="st0" d="M71.5,111.4c-0.4,3.1-1.4,6.7-4.8,7.9c-2.8,0.7-5.2-0.8-7-2.8c-0.8-0.9-1.4-2-1.7-3.2c4.2,2.8,9.7,0.6,13.3-2
		L71.5,111.4z"/>
	<path class="st1" d="M71.5,111.4c-0.4,3.1-1.4,6.7-4.8,7.9c-2.8,0.7-5.2-0.8-7-2.8c-0.8-0.9-1.4-2-1.7-3.2c4.2,2.8,9.7,0.6,13.3-2
		L71.5,111.4z"/>
	<path class="st0" d="M150.6,111.7c-1,2.9-3.5,5.8-6.4,6.4c-2.2,0.3-4.4-0.7-5.5-2.6c-0.8-1.1-1.2-2.3-1.3-3.6
		C141.1,114.8,147,114.1,150.6,111.7z"/>
	<path class="st1" d="M150.6,111.7c-1,2.9-3.5,5.8-6.4,6.4c-2.2,0.3-4.4-0.7-5.5-2.6c-0.8-1.1-1.2-2.3-1.3-3.6
		C141.1,114.8,147,114.1,150.6,111.7z"/>
	<path class="st0" d="M142.4,119.9c1.6,0.2,3.2,0,4.7-0.6c-4.2,10.4-9.2,20.5-14.4,30.6c-1.8-5-1.3-10.4-1.1-16.1
		c0.8-6.6,2.2-13,4.3-19.3C137.4,116.9,139.6,119.4,142.4,119.9z"/>
	<path class="st1" d="M142.4,119.9c1.6,0.2,3.2,0,4.7-0.6c-4.2,10.4-9.2,20.5-14.4,30.6c-1.8-5-1.3-10.4-1.1-16.1
		c0.8-6.6,2.2-13,4.3-19.3C137.4,116.9,139.6,119.4,142.4,119.9z"/>
	<path class="st0" d="M76.8,149.8v0.1c-6.4-9.6-11.2-19.8-15.7-30c2,1.1,5.5,1.8,7.7,0.4c1.9-1.5,3.3-3.6,4-6
		C77.8,124.6,79,138,76.8,149.8z"/>
	<path class="st1" d="M76.8,149.8v0.1c-6.4-9.6-11.2-19.8-15.7-30c2,1.1,5.5,1.8,7.7,0.4c1.9-1.5,3.3-3.6,4-6
		C77.8,124.6,79,138,76.8,149.8z"/>
	<path class="st0" d="M135.9,157.9c-0.8,8.8-4.3,17.1-10,23.9c-13.1,5.2-30.7,5.6-43.8,0.1c-6.5-7-8.9-16-9.2-25.6
		c13.9-10.1,35.6-12.4,51.6-5.2C128.5,153.1,132.4,155,135.9,157.9z"/>
	<path class="st1" d="M135.9,157.9c-0.8,8.8-4.3,17.1-10,23.9c-13.1,5.2-30.7,5.6-43.8,0.1c-6.5-7-8.9-16-9.2-25.6
		c13.9-10.1,35.6-12.4,51.6-5.2C128.5,153.1,132.4,155,135.9,157.9z"/>
	<path class="st0" d="M189.8,85.7c-11.8-4.2-24.3-6.5-36.8-6.8c-1.1-13.3-2.6-21.6-5.3-29.2c-6.1-0.4-33.2-1.4-43.8-1.4
		c-10.4,0-37.2,1.7-43.2,2c-3.4,9.4-5.6,19.2-6.6,29.2c-13.3,1-26.5,3.8-39.1,8.3c-1.7,0.6-2.4,1.2-2.4,1.1c4.6,5.8,11.5,9.3,19,9.5
		c3.6,0.1,10.4-0.6,14.8-2.5c1.2-0.5,3.6-1.6,3.6-1.6c0.5,0.8,0.9,1.6,1.2,2.5c1.2,3.4,2.8,8.3,3.8,10.3c1.6,3.2,4.1,5.6,8.2,5.8
		c2.7-0.2,5.2-1.5,6.8-3.6c-10.6-0.6-15-6.2-15.7-14.8c-2.5-0.4-3.2-0.6-3.5-2c-0.3-1.5,0.1-3.1,1.1-4.3c1.2-1.7,3.2-3.2,8.3-1.7
		c2.9,1.1,5.5,2.7,7.8,4.8c2.2,2,8.5,8.6,12.4,10.8c4.1,2.4,11.9,4.7,16.9-0.4c3.2-3,5.3-7,6-11.4c-8-0.2-15.9-0.9-23.8-2
		c-2.2-0.4-1.2-2.4,0.5-1.9c0,0,13.8,1.8,23.6,1.9c0-1.2,0-3.1,0.1-5.4c-8.3-0.2-16.6-1-24.7-2.5c-1.8-0.5-1.4-2.5,0.2-2
		c8.1,1.3,16.3,2.1,24.5,2.4c0-1.7,0.1-4.2,0.1-6.5C95.6,74,87.5,73.3,79.5,72c-2-0.4-1.6-2.2,0-1.9c8,1.1,16.1,1.7,24.2,1.9v-5.4
		c0-2,1.8-2.2,1.8-0.1v5.4c7.6-0.2,15.3-0.9,22.8-2.2c2.4-0.5,2.2,1.6,1.1,1.7c-7.9,1.5-15.9,2.4-23.9,2.8v6.5
		c7.3-0.2,16-0.5,23.3-2.2c2.8-0.6,3,1.6,0.7,1.9c-7.9,1.3-15.9,2.1-23.9,2.4c0,1.8,0,4.1,0.1,5.4c8.3-0.3,16.6-1,24.8-2.2
		c1.9-0.4,2.3,1.7,0.2,2c-2,0.2-15.8,2-24.7,2.3c1,3,1.1,7.3,5.4,11c4.1,3.6,11.2,3.2,16.1,0.4c3.8-2.3,10-8.9,12.1-10.9
		c1.8-1.6,6.1-5.5,11.9-5.4c5.6,0.1,5.8,3,6.1,3.8c0.2,1,0.5,2.5-0.8,3.4c-1,0.6-1.9,0.4-2.9,0.8c-0.7,4.7-2.2,10-5.9,12.7
		c-4,3-10.1,3.4-10.1,3.4s0.8,1,1.1,1.2c1.6,1.1,3.6,1.7,5.5,1.4c2.5-0.4,4.9-1.6,6.7-3.5c1.9-2.5,3.7-7.7,5-11
		c0.5-1.2,1.7-3.5,2-4.4c1.2,0.5,1.7,0.8,3.8,1.7c4.4,1.7,9.1,2.5,13.8,2.4c5.9-0.1,12.6-3.7,16.6-7.4c0.6-0.6,2-2.3,2-2.3
		S190.9,86,189.8,85.7z"/>
	<path class="st1" d="M189.8,85.7c-11.8-4.2-24.3-6.5-36.8-6.8c-1.1-13.3-2.6-21.6-5.3-29.2c-6.1-0.4-33.2-1.4-43.8-1.4
		c-10.4,0-37.2,1.7-43.2,2c-3.4,9.4-5.6,19.2-6.6,29.2c-13.3,1-26.5,3.8-39.1,8.3c-1.7,0.6-2.4,1.2-2.4,1.1c4.6,5.8,11.5,9.3,19,9.5
		c3.6,0.1,10.4-0.6,14.8-2.5c1.2-0.5,3.6-1.6,3.6-1.6c0.5,0.8,0.9,1.6,1.2,2.5c1.2,3.4,2.8,8.3,3.8,10.3c1.6,3.2,4.1,5.6,8.2,5.8
		c2.7-0.2,5.2-1.5,6.8-3.6c-10.6-0.6-15-6.2-15.7-14.8c-2.5-0.4-3.2-0.6-3.5-2c-0.3-1.5,0.1-3.1,1.1-4.3c1.2-1.7,3.2-3.2,8.3-1.7
		c2.9,1.1,5.5,2.7,7.8,4.8c2.2,2,8.5,8.6,12.4,10.8c4.1,2.4,11.9,4.7,16.9-0.4c3.2-3,5.3-7,6-11.4c-8-0.2-15.9-0.9-23.8-2
		c-2.2-0.4-1.2-2.4,0.5-1.9c0,0,13.8,1.8,23.6,1.9c0-1.2,0-3.1,0.1-5.4c-8.3-0.2-16.6-1-24.7-2.5c-1.8-0.5-1.4-2.5,0.2-2
		c8.1,1.3,16.3,2.1,24.5,2.4c0-1.7,0.1-4.2,0.1-6.5C95.6,74,87.5,73.3,79.5,72c-2-0.4-1.6-2.2,0-1.9c8,1.1,16.1,1.7,24.2,1.9v-5.4
		c0-2,1.8-2.2,1.8-0.1v5.4c7.6-0.2,15.3-0.9,22.8-2.2c2.4-0.5,2.2,1.6,1.1,1.7c-7.9,1.5-15.9,2.4-23.9,2.8v6.5
		c7.3-0.2,16-0.5,23.3-2.2c2.8-0.6,3,1.6,0.7,1.9c-7.9,1.3-15.9,2.1-23.9,2.4c0,1.8,0,4.1,0.1,5.4c8.3-0.3,16.6-1,24.8-2.2
		c1.9-0.4,2.3,1.7,0.2,2c-2,0.2-15.8,2-24.7,2.3c1,3,1.1,7.3,5.4,11c4.1,3.6,11.2,3.2,16.1,0.4c3.8-2.3,10-8.9,12.1-10.9
		c1.8-1.6,6.1-5.5,11.9-5.4c5.6,0.1,5.8,3,6.1,3.8c0.2,1,0.5,2.5-0.8,3.4c-1,0.6-1.9,0.4-2.9,0.8c-0.7,4.7-2.2,10-5.9,12.7
		c-4,3-10.1,3.4-10.1,3.4s0.8,1,1.1,1.2c1.6,1.1,3.6,1.7,5.5,1.4c2.5-0.4,4.9-1.6,6.7-3.5c1.9-2.5,3.7-7.7,5-11
		c0.5-1.2,1.7-3.5,2-4.4c1.2,0.5,1.7,0.8,3.8,1.7c4.4,1.7,9.1,2.5,13.8,2.4c5.9-0.1,12.6-3.7,16.6-7.4c0.6-0.6,2-2.3,2-2.3
		S190.9,86,189.8,85.7z"/>
	<path d="M126.6,159.4c1.1,2,0.2,4.3-1,6.1c-2.2,2.7-5.8,3.9-9.1,3c-2.1-0.7-3.9-2-5-3.8c-0.5,1.7,0.7,2.9,0.6,4.4
		c-0.2,0.3-0.6,0.4-0.9,0.2c0,0-0.1,0-0.1-0.1c-1.9-2.5-2.6-6.4-1-9.1c2-3.8,6-5.4,10.2-5C123,155.4,125.3,157,126.6,159.4z"/>
	<path class="st1" d="M126.6,159.4c1.1,2,0.2,4.3-1,6.1c-2.2,2.7-5.8,3.9-9.1,3c-2.1-0.7-3.9-2-5-3.8c-0.5,1.7,0.7,2.9,0.6,4.4
		c-0.2,0.3-0.6,0.4-0.9,0.2c0,0-0.1,0-0.1-0.1c-1.9-2.5-2.6-6.4-1-9.1c2-3.8,6-5.4,10.2-5C123,155.4,125.3,157,126.6,159.4z"/>
	<path d="M97.6,160.7c1.7,2.8,0.8,6.4-0.7,9c-0.2,0.4-0.6,0.7-1.1,0.4c-0.7-0.8,0.2-1.6,0.4-2.4c0.2-0.7,0.3-1.4,0.1-2.2
		c-2.1,3-5.7,4.6-9.4,4c-2.7-0.7-4.9-2.6-6-5.2c-0.5-1.7-0.2-3.5,0.7-4.9c2.5-3.4,7.1-4.1,10.8-2.9
		C94.7,157.2,96.5,158.7,97.6,160.7z"/>
	<path class="st1" d="M97.6,160.7c1.7,2.8,0.8,6.4-0.7,9c-0.2,0.4-0.6,0.7-1.1,0.4c-0.7-0.8,0.2-1.6,0.4-2.4
		c0.2-0.7,0.3-1.4,0.1-2.2c-2.1,3-5.7,4.6-9.4,4c-2.7-0.7-4.9-2.6-6-5.2c-0.5-1.7-0.2-3.5,0.7-4.9c2.5-3.4,7.1-4.1,10.8-2.9
		C94.7,157.2,96.5,158.7,97.6,160.7z"/>
	<path d="M126.3,178.8c-0.2,0.6-0.4,0.6-0.8,1.2c-1.3-0.4-2.8-0.8-4.2-1.3c-12-4.7-27.2-3.4-38.5,1.3c-0.4-0.3-0.6-0.6-0.7-1.1
		C95.1,173,113.1,172.3,126.3,178.8z"/>
	<path class="st1" d="M126.3,178.8c-0.2,0.6-0.4,0.6-0.8,1.2c-1.3-0.4-2.8-0.8-4.2-1.3c-12-4.7-27.2-3.4-38.5,1.3
		c-0.4-0.3-0.6-0.6-0.7-1.1C95.1,173,113.1,172.3,126.3,178.8z"/>
	<path d="M128.5,115.1c-1.9,9.5-7.9,20.4-18,23.2c-7.9,2-16.8,0.4-22.2-6.2c-3.7-4.8-5.9-10.5-6.4-16.6c0.4-0.2,0.8-0.3,1.2-0.2
		c0.8,9,5.5,18.8,14.5,21.6c8.2,2.6,17.1,0,22.6-6.6c3.5-4.6,5.9-9.9,7.1-15.6C127.7,114.6,128.2,114.8,128.5,115.1z"/>
	<path class="st1" d="M128.5,115.1c-1.9,9.5-7.9,20.4-18,23.2c-7.9,2-16.8,0.4-22.2-6.2c-3.7-4.8-5.9-10.5-6.4-16.6
		c0.4-0.2,0.8-0.3,1.2-0.2c0.8,9,5.5,18.8,14.5,21.6c8.2,2.6,17.1,0,22.6-6.6c3.5-4.6,5.9-9.9,7.1-15.6
		C127.7,114.6,128.2,114.8,128.5,115.1z"/>
	<path class="st2" d="M15,39c5.2,10,15.6,13.2,26.3,12.6c5.9,0,11.6-0.6,17.5-1V51c-3,8.4-5.1,17-6.2,25.8
		c-15.4,0.6-31.1-0.7-42.4-10.9c-7.8-7.8-9.7-18.6-8-29.3c1.8-2.2,3.8-4,5.6-6.1C10.3,33.2,14.4,35.4,15,39z"/>
	<path class="st2" d="M206.1,34.6c0.4,1.6,0.4,3,0.6,4.7c0.7,11.8-4.4,22.7-14.5,28.7c-11,6.7-23.8,8.9-37.3,9.4
		c-0.2-1.2-0.4-2.9-0.6-4.2c-0.9-7.8-2.5-15.5-4.7-23c14.5-0.2,32.2,3.6,41.8-9.7c1.2-1.9,2.5-3.5,3.6-5.5c2.2-1,4.2-2.4,6.4-3.5
		C203.1,32.2,204.3,33.6,206.1,34.6z"/>
	<path class="st2" d="M151,94.4c0.1,4.6-1.4,9.2-5.5,11.4c-1.9,1-4.1,1.4-6.2,1.3c-0.1-0.4-0.1-0.9,0-1.3c3.2,0,6.5-1.2,8.3-3.8
		c1.1-2.1,1.7-4.5,1.7-6.8C149.8,94.8,150.4,94.5,151,94.4z"/>
	<path class="st2" d="M69.2,106.7c-0.7,0.2-1.4,0.2-2,0c-5.8,0-10.6-4.7-10.6-10.6c0-0.3,0-0.6,0-0.8c0.7-0.2,1.4-0.2,2,0
		c0,4.2,1.7,9.7,10.3,9.7C69.6,106,69,106.1,69.2,106.7z"/>
</g>
</svg>
