<svg width="17" height="17" viewBox="0 0 17 17" fill="none" xmlns="http://www.w3.org/2000/svg">
<path fill-rule="evenodd" clip-rule="evenodd" d="M8.02235 11.2941C7.14706 11.232 6.38753 10.8847 5.76729 10.2625C4.02612 8.51666 4.45529 5.24513 6.72447 2.9703C8.99271 0.69548 12.2539 0.264422 13.9969 2.0103C15.4144 3.43242 15.4219 5.93689 14.0148 8.10066C13.8736 8.31901 13.9339 8.61077 14.1513 8.75289C14.3706 8.89783 14.6614 8.83477 14.8026 8.61548C16.4553 6.0743 16.3979 3.08325 14.6624 1.34207C12.5541 -0.771814 8.69529 -0.341696 6.05906 2.30207C3.93388 4.43477 3.24588 7.36183 4.16259 9.52466L3.55459 11.3496C3.11129 11.2658 2.63882 11.3694 2.29624 11.711L0.412941 13.5934C-0.137647 14.144 -0.137647 15.0381 0.412941 15.5896C0.678353 15.855 1.03318 16.0018 1.41059 16.0018C1.788 16.0018 2.14282 15.855 2.40918 15.5887L4.29247 13.7063C4.636 13.3628 4.73953 12.8894 4.65482 12.4451L6.42518 11.855C6.89765 12.0687 7.40776 12.1967 7.95553 12.2362C7.96681 12.2371 7.9781 12.2371 7.98938 12.2371C8.23409 12.2371 8.44023 12.047 8.45812 11.7985C8.47694 11.5388 8.28118 11.3129 8.02235 11.2941ZM3.62612 13.04L1.74282 14.9223C1.56494 15.1002 1.25529 15.0992 1.07835 14.9232C0.989882 14.8348 0.940941 14.7162 0.940941 14.591C0.940941 14.4658 0.989882 14.3482 1.07835 14.2597L2.96165 12.3774C3.05106 12.288 3.16871 12.24 3.29388 12.24C3.41906 12.24 3.53671 12.2889 3.62612 12.3774C3.71553 12.4658 3.76353 12.5844 3.76353 12.7087C3.76353 12.8329 3.71553 12.9524 3.62612 13.04ZM4.81388 10.6023L4.52212 11.4785L5.40306 11.1849C5.36738 11.1543 5.33085 11.1251 5.2943 11.0959C5.22867 11.0434 5.16293 10.9909 5.10188 10.9298C4.99835 10.8263 4.90518 10.7143 4.81388 10.6023ZM12.7047 9.4136C10.8854 9.4136 9.41059 10.8884 9.41059 12.7077C9.41059 14.527 10.8854 16.0018 12.7047 16.0018C14.524 16.0018 15.9988 14.527 15.9988 12.7077C15.9988 10.8884 14.524 9.4136 12.7047 9.4136ZM10.3546 12.7077C10.3546 14.0037 11.4087 15.0578 12.7047 15.0578C14.0007 15.0578 15.0548 14.0037 15.0548 12.7077C15.0548 11.4117 14.0007 10.3576 12.7047 10.3576C11.4087 10.3576 10.3546 11.4117 10.3546 12.7077Z" fill="#445058"></path>
<path d="M8.94003 3.76654C9.19993 3.76654 9.41061 3.55585 9.41061 3.29596C9.41061 3.03606 9.19993 2.82537 8.94003 2.82537C8.68013 2.82537 8.46944 3.03606 8.46944 3.29596C8.46944 3.55585 8.68013 3.76654 8.94003 3.76654Z" fill="#445058"></path>
<path d="M7.05767 5.6489C7.31757 5.6489 7.52826 5.43821 7.52826 5.17831C7.52826 4.91841 7.31757 4.70772 7.05767 4.70772C6.79778 4.70772 6.58709 4.91841 6.58709 5.17831C6.58709 5.43821 6.79778 5.6489 7.05767 5.6489Z" fill="#445058"></path>
<path d="M8.94003 5.6489C9.19993 5.6489 9.41061 5.43821 9.41061 5.17831C9.41061 4.91841 9.19993 4.70772 8.94003 4.70772C8.68013 4.70772 8.46944 4.91841 8.46944 5.17831C8.46944 5.43821 8.68013 5.6489 8.94003 5.6489Z" fill="#445058"></path>
<path d="M10.8224 3.76654C11.0823 3.76654 11.293 3.55585 11.293 3.29596C11.293 3.03606 11.0823 2.82537 10.8224 2.82537C10.5625 2.82537 10.3518 3.03606 10.3518 3.29596C10.3518 3.55585 10.5625 3.76654 10.8224 3.76654Z" fill="#445058"></path>
<path d="M10.8224 5.6489C11.0823 5.6489 11.293 5.43821 11.293 5.17831C11.293 4.91841 11.0823 4.70772 10.8224 4.70772C10.5625 4.70772 10.3518 4.91841 10.3518 5.17831C10.3518 5.43821 10.5625 5.6489 10.8224 5.6489Z" fill="#445058"></path>
<path d="M12.7047 5.6489C12.9646 5.6489 13.1753 5.43821 13.1753 5.17831C13.1753 4.91841 12.9646 4.70772 12.7047 4.70772C12.4448 4.70772 12.2341 4.91841 12.2341 5.17831C12.2341 5.43821 12.4448 5.6489 12.7047 5.6489Z" fill="#445058"></path>
<path d="M12.7047 3.76654C12.9646 3.76654 13.1753 3.55585 13.1753 3.29596C13.1753 3.03606 12.9646 2.82537 12.7047 2.82537C12.4448 2.82537 12.2341 3.03606 12.2341 3.29596C12.2341 3.55585 12.4448 3.76654 12.7047 3.76654Z" fill="#445058"></path>
<path d="M12.7047 7.53125C12.9646 7.53125 13.1753 7.32056 13.1753 7.06066C13.1753 6.80076 12.9646 6.59007 12.7047 6.59007C12.4448 6.59007 12.2341 6.80076 12.2341 7.06066C12.2341 7.32056 12.4448 7.53125 12.7047 7.53125Z" fill="#445058"></path>
<path d="M10.8224 7.53125C11.0823 7.53125 11.293 7.32056 11.293 7.06066C11.293 6.80076 11.0823 6.59007 10.8224 6.59007C10.5625 6.59007 10.3518 6.80076 10.3518 7.06066C10.3518 7.32056 10.5625 7.53125 10.8224 7.53125Z" fill="#445058"></path>
<path d="M8.94003 7.53125C9.19993 7.53125 9.41061 7.32056 9.41061 7.06066C9.41061 6.80076 9.19993 6.59007 8.94003 6.59007C8.68013 6.59007 8.46944 6.80076 8.46944 7.06066C8.46944 7.32056 8.68013 7.53125 8.94003 7.53125Z" fill="#445058"></path>
<path d="M7.05767 7.53125C7.31757 7.53125 7.52826 7.32056 7.52826 7.06066C7.52826 6.80076 7.31757 6.59007 7.05767 6.59007C6.79778 6.59007 6.58709 6.80076 6.58709 7.06066C6.58709 7.32056 6.79778 7.53125 7.05767 7.53125Z" fill="#445058"></path>
<path d="M7.05767 9.4136C7.31757 9.4136 7.52826 9.20291 7.52826 8.94302C7.52826 8.68312 7.31757 8.47243 7.05767 8.47243C6.79778 8.47243 6.58709 8.68312 6.58709 8.94302C6.58709 9.20291 6.79778 9.4136 7.05767 9.4136Z" fill="#445058"></path>
<path d="M8.94003 9.4136C9.19993 9.4136 9.41061 9.20291 9.41061 8.94302C9.41061 8.68312 9.19993 8.47243 8.94003 8.47243C8.68013 8.47243 8.46944 8.68312 8.46944 8.94302C8.46944 9.20291 8.68013 9.4136 8.94003 9.4136Z" fill="#445058"></path>
</svg>
