<svg width="16" height="16" viewBox="0 0 16 16" fill="none" xmlns="http://www.w3.org/2000/svg">
<path fill-rule="evenodd" clip-rule="evenodd" d="M9.32304 5.27388H9.33339H9.32304ZM6.8468 10.9209H9.24209L10.8684 9.29365V6.90024L9.24304 5.27388H6.84586L5.22139 6.90024V9.29365L6.8468 10.9209ZM9.30139 11.8621H6.78845C6.68868 11.8621 6.45715 11.8621 6.25104 11.656L4.3988 9.768C4.31974 9.61271 4.28021 9.47341 4.28021 9.35388V6.84C4.28021 6.74212 4.28021 6.50965 4.48539 6.30447L6.37621 4.44847C6.53151 4.37129 6.6708 4.33271 6.78845 4.33271H9.30139C9.39927 4.33271 9.62986 4.33271 9.83598 4.536L11.692 6.42682C11.7701 6.58306 11.8096 6.72141 11.8096 6.84V9.35388C11.8096 9.45177 11.8096 9.68424 11.6035 9.88941L9.71551 11.7445C9.55927 11.8226 9.41998 11.8621 9.30139 11.8621ZM5.0372 15.0579L10.9638 15.0588C10.9516 15.0579 10.9619 15.0513 10.9798 15.0419L15.0579 10.9638L15.0588 5.03718C15.0588 5.04753 15.0523 5.03812 15.0438 5.02118L10.9647 0.942118L5.03814 0.941176C5.05038 0.942118 5.04003 0.948706 5.0212 0.958118L0.942143 5.03718L0.941202 10.9619C0.941202 10.9506 0.949672 10.9628 0.957202 10.9779L5.0372 15.0579ZM10.9638 16H5.03812C4.91106 16 4.64847 16 4.41318 15.7647L0.147765 11.4664C0.08 11.3318 0 11.136 0 10.9628V5.03718C0 4.91106 0 4.64753 0.235294 4.41224L4.53553 0.146824C4.66918 0.08 4.86494 0 5.03812 0H10.9638C11.0908 0 11.3534 0 11.5887 0.235294L15.8541 4.53553C15.9209 4.66918 16 4.86494 16 5.03718V10.9628C16 11.0889 16 11.3515 15.7675 11.5859L11.4664 15.8532C11.3318 15.92 11.136 16 10.9638 16Z" fill="#445058"></path>
</svg>
