<svg xmlns="http://www.w3.org/2000/svg" fill="none" viewBox="0 0 92 125" height="125" width="92">
<path fill="white" d="M88.3416 14.4055C84.5714 17.2332 77.0314 21.0034 67.6058 18.6473C50.9537 14.5625 46.2409 0.267578 46.2409 0.267578C46.2409 0.267578 41.4966 14.5473 24.876 18.6473C15.3091 21.0034 7.90984 17.2022 3.98206 14.4212H0.997894V91.3973C0.997894 93.44 1.46891 97.2102 4.62689 101.137C8.53839 105.85 15.1363 108.882 24.2637 110.202C31.6472 111.255 36.988 113.548 40.7583 117.208C43.5859 119.895 46.2566 124.545 46.2566 124.545C46.2566 124.545 49.0061 119.801 51.6925 117.208C55.4943 113.548 60.8829 111.269 68.1876 110.202C77.3302 108.88 83.8966 105.804 87.8239 101.074C90.9818 97.2412 91.4529 93.3932 91.4529 91.4608V14.4842H88.4524"></path>
<path fill="#013369" d="M88.6562 17.3903C88.6562 17.3903 79.5918 24.444 66.8208 21.2545C51.9435 17.5315 46.0844 6.39355 46.0844 6.39355C46.0844 6.39355 40.303 17.5473 25.3475 21.2545C12.7802 24.3968 3.66858 17.3278 3.66858 17.3278V91.3181C3.66963 93.8318 4.72089 104.515 24.719 107.342C32.5892 108.481 38.4646 111.003 42.6276 115.071C44.1483 116.529 45.2983 118.01 46.1784 119.375C47.0627 118.013 48.2205 116.533 49.7281 115.071C53.9547 111.003 59.8295 108.474 67.6373 107.342C87.5881 104.468 88.5301 93.7856 88.6877 91.3181V17.3278"></path>
<path fill="white" d="M46.2409 112.008C46.2409 112.008 52.0223 104.876 66.9772 102.568C84.2574 99.9121 83.6293 91.8375 83.6293 91.4295V52.627H8.6954V91.4295C8.6954 91.8375 8.18657 99.9121 25.347 102.568C40.365 104.893 46.0839 112.008 46.0839 112.008"></path>
<path fill="#D50A0A" d="M28.6462 81.0138L28.6436 62.6336L26.3347 61.3376V56.5618H36.8751V61.3376L34.676 62.6336V100.18L29.0521 98.4987L20.9146 74.4637L20.913 90.3292L23.5054 92.3088V97.1954L12.2104 94.32V90.1569L14.8024 89.1451V62.5958L12.1474 61.2846V56.5088H20.693L28.6735 81.0154"></path>
<path fill="#D50A0A" d="M48.126 97.823L50.3881 100.525V105.301L39.1877 101.122V97.069L41.6536 96.0566V62.5954L39.2029 61.3535V56.5146H58.6822V66.2391H54.4094L53.115 62.2488H48.1664V73.4965H51.8742L53.3345 71.3604H56.3197V81.3678H53.3345L51.9283 79.3409H48.158V97.8787"></path>
<path fill="#D50A0A" d="M60.5368 99.5508V94.7749L63.3173 92.4965V62.6485L60.9443 61.4067V56.5684H72.1458V61.4067L69.9467 62.6485V90.7694L74.7693 89.4667L75.6934 82.1152H80.2965V94.3995L60.5027 99.6784"></path>
<path fill="white" d="M10.6593 44.7244L7.26607 42.1792H11.4133L12.7818 38.252L14.1497 42.1792H18.2969L14.9037 44.7396L16.1508 48.7304L12.7734 46.358L9.39589 48.7304L10.6435 44.7396"></path>
<path fill="white" d="M25.3475 44.7244L21.9543 42.1792H26.1016L27.47 38.252L28.8379 42.1792H32.9851L29.5919 44.7396L30.839 48.7304L27.4616 46.358L24.0841 48.7304L25.3312 44.7396"></path>
<path fill="white" d="M10.6593 31.5291L7.26607 28.9839H11.4133L12.7818 25.0566L14.1497 28.9839H18.2969L14.9037 31.5443L16.1508 35.5346L12.7734 33.1627L9.39589 35.5346L10.6435 31.5443"></path>
<path fill="white" d="M25.3475 31.5291L21.9543 28.9839H26.1016L27.47 25.0566L28.8379 28.9839H32.9851L29.5919 31.5443L30.839 35.5346L27.4616 33.1627L24.0841 35.5346L25.3312 31.5443"></path>
<path fill="white" d="M83.0008 48.6518L79.6228 46.2799L76.2453 48.6518L77.4925 44.6615L74.0998 42.1011H78.2465L79.6144 38.1738L80.9828 42.1011H85.1296L81.7363 44.6615L82.985 48.6518"></path>
<path fill="white" d="M68.2338 48.6518L64.8563 46.2799L61.4783 48.6518L62.726 44.6615L59.3328 42.1011H63.4795L64.8474 38.1738L66.2174 42.1011H70.3647L66.9709 44.6615L68.2202 48.6518"></path>
<path fill="white" d="M83.0008 35.4555L79.6228 33.0836L76.2453 35.4555L77.4925 31.4652L74.0998 28.9048H78.2465L79.6144 24.9775L80.9828 28.9048H85.1296L81.7363 31.4652L82.985 35.4555"></path>
<path fill="white" d="M68.2338 35.4555L64.8563 33.0836L61.4783 35.4555L62.726 31.4652L59.3328 28.9048H63.4795L64.8474 24.9775L66.2174 28.9048H70.3647L66.9709 31.4652L68.2202 35.4555"></path>
<path fill="white" d="M51.2835 24.114C53.7336 21.6996 55.4937 20.7838 55.4937 20.7838L55.4717 20.777C55.8193 20.746 56.0236 21.176 56.1286 21.4354C57.6246 25.1269 57.9901 29.6512 56.8737 33.9712C55.1451 40.5534 49.6315 46.6441 37.7079 48.1879C37.4533 48.221 37.1377 48.1417 37.1077 47.9868C37.6575 45.4894 38.9929 40.6978 41.8993 35.6238C42.4712 35.9409 42.9894 36.288 43.5014 36.6918C43.6154 36.4934 43.7611 36.2596 43.9524 35.9527C44.043 35.8073 44.1439 35.6454 44.2565 35.4631C42.7962 34.2979 41.1148 33.4981 39.1987 33.1384C39.1987 33.1384 38.8322 33.8436 38.5686 34.3966C38.5686 34.3966 39.3058 34.5284 40.2027 34.8503C37.6234 40.3486 36.7528 45.47 36.5107 47.7794C35.7819 46.6011 35.2084 43.9136 35.0057 42.438C33.1206 28.5511 43.1275 20.4288 54.014 20.2886C54.7533 20.2786 55.0316 20.4146 55.0316 20.4146C55.0316 20.4146 52.6282 21.3257 49.863 23.4308C49.863 23.4308 49.1935 23.1588 48.503 22.9829C48.0551 23.2754 47.6009 23.5773 47.1735 23.8835C48.4621 24.197 50.1109 24.8623 51.714 26.1766C52.0653 25.8437 52.4439 25.4887 52.8147 25.16C52.4581 24.8633 51.8364 24.4264 51.2835 24.114ZM44.3873 26.1089C46.1784 26.5011 47.8734 27.2998 49.3831 28.5438L49.3894 28.5406C49.727 28.1646 50.0836 27.7976 50.4512 27.4206C49.4141 26.5641 47.906 25.557 45.6596 25.0166C45.5744 25.0879 45.4865 25.1604 45.3967 25.2345C45.0748 25.5004 44.7276 25.787 44.3873 26.1089ZM42.0306 28.6535C44.0097 29.062 45.7599 29.9589 47.1992 31.1672L47.2086 31.1619C47.5143 30.7613 47.8372 30.3407 48.1827 29.9258C46.4861 28.5264 44.5443 27.7283 43.0299 27.4594C42.6891 27.8459 42.3341 28.2623 42.0306 28.6535ZM45.2353 33.9166L45.2348 33.9162V33.9151C45.5036 33.5165 45.804 33.0822 46.1212 32.6301C44.8798 31.5931 43.1202 30.578 40.9526 30.148C40.6433 30.608 40.0982 31.497 40.0982 31.497C41.8734 31.8272 43.6827 32.6237 45.2348 33.9162V33.9166H45.2353Z" clip-rule="evenodd" fill-rule="evenodd"></path>
</svg>
