<?xml version="1.0" encoding="utf-8"?>
<!-- Generator: Adobe Illustrator 26.4.1, SVG Export Plug-In . SVG Version: 6.00 Build 0)  -->
<svg version="1.1"
	 id="Layer_1" xmlns:dc="http://purl.org/dc/elements/1.1/" xmlns:cc="http://creativecommons.org/ns#" xmlns:rdf="http://www.w3.org/1999/02/22-rdf-syntax-ns#"
	 xmlns="http://www.w3.org/2000/svg" xmlns:xlink="http://www.w3.org/1999/xlink" x="0px" y="0px" viewBox="0 0 200 204.6"
	 style="enable-background:new 0 0 200 204.6;" xml:space="preserve">
<style type="text/css">
	.st0{fill:#98002E;}
	.st1{fill:#F9A01B;}
	.st2{fill:none;stroke:#F9A01B;stroke-width:0.12;}
	.st3{fill:#FFFFFF;}
</style>
<path d="M25.7,78.4c0.6-6.8,25.1-15.8,64.9-17.3c-5,3.7-8.3,9.3-9.2,15.5L81,79.5c-0.2,1.9-0.6,3.7-1.2,5.5c-1.6,4-5.9,7.3-10.4,9.7
	c-16-1.9-29.4-5.4-37.2-9.6C27.8,82.9,25.4,80.4,25.7,78.4z M178.1,76.3c1.6,1.7,1.4,2.8,1.4,3.1c-0.1,1.9-2.5,4.3-6.6,6.4
	c-8.5,4.4-23.2,7.8-40.4,9.6c0.8-0.5,1.7-0.9,2.5-1.3l0.2-0.1c5-2,10.7-4.3,10.9-12.6c0.1-1.3,0.1-5.3,0.8-6.7
	c1-1.9,3.4-4.7,5.4-5.5l-3.5-0.6h-0.5c1.1-0.8,1.9-1.8,2.5-3C165.1,68.5,174.6,72.5,178.1,76.3L178.1,76.3z M195.4,66
	c-7.3-8.3-23.9-14.9-45-18.8c0-2.4,1.6-3.5,4.2-5.4c1.5-1.1,3-2.2,4.4-3.5c6.8-6.6-1.2-16.4-1.4-16.9l-4.4-5.4l1.1,7
	c0.7,4.7-1,6.4-6.2,10c-0.6,0.5-1.1,0.9-1.7,1.4c0.4-3.7,0.1-7.4-0.7-11c-1-4.3-3.1-6.1-3.1-6.1l-0.6,6.4c0,0.1-0.5,5-7.1,11
	c0.6-0.7,1.1-1.3,1.6-2c3.2-4.8,2.3-10.1,1.2-16.3l-0.2-1.3c-1.1-6.4,0.6-10.4,1.7-11.2c1.1-1.3,3.2-3.5,3.2-3.5s-1.1-0.5-4.3-0.1
	c-4.1,0.6-11,3.1-10.9,8.8c0.2,2.3,0.8,4.7,1.7,6.8c0.7,2.3,1.4,4.4,0.7,5.4c-0.5,0.8-1.9,1.6-4.3,2c-9.8,1.8-17.3,6.2-21,12.7
	c-1.3,2.1-2.2,4.5-2.6,7c-24.1,0.1-47,3.1-64.7,8.5C16.8,57.5,5.9,65.9,5,75.6C4.6,80.8,7,88.1,19.7,95.2h-0.1l3.6,1.8l1.9,0.8
	c6.6,2.9,13.5,5.2,20.5,6.7c-2.7,1.5-5.2,3.3-7.6,5.4c-22.8,18.8-26,52.4-7.3,75.2s52.4,26,75.2,7.3c9.4-7.7,15.9-18.5,18.4-30.4
	c4.3-12.8,3.8-26.6,3.6-31.9c-0.5-11.9,5.4-18.5,9.1-21.4c16.8-2.2,31.8-5.9,42.8-10.8l1.8-0.8l3.8-1.8l-0.1-0.1
	c9-5,14-10.8,14.5-17C200.4,73.8,198.8,69.7,195.4,66L195.4,66z"/>
<path class="st0" d="M20.6,154.9c1.6,8.5,6.4,16,13.4,21.1c2.4,1.7,5,3.1,7.8,4.1c-1.7-2.9-3.7-5.9-5.8-8.9
	c-3.8-5.6-7.8-11.5-10.3-17.8c-2.6-6.3-3.3-13.3-2.2-20c-2.1,5.7-3.1,11.7-3.1,17.8C20.5,152.5,20.6,153.7,20.6,154.9z"/>
<path class="st0" d="M29.3,152.2c2.4,5.9,6.2,11.5,10,16.9c2.8,4.1,5.4,8.3,7.8,12.6c2.4,0.5,4.8,0.8,7.2,1.1
	c-2.7-3.9-4.9-8.2-6.6-12.6c-7.4-18.5-6.5-41.3,2.8-54.5c4.6-6.5,10.7-11.7,17.8-15.4c6.2-3.4,10.2-4.4,14.3-6.8
	c4.3-2.5,6.6-6.8,3.7-16.6c-0.7-2.2-0.9-4.5-0.7-6.8c-1.1,2.1-1.9,4.4-2.2,6.7c-0.3,3-0.9,6-1.8,8.9c-3.8,10.1-22.4,15.6-24.8,16.4
	c-6.3,1.8-12.2,5-17.3,9.2C27.9,121.6,23.9,137.8,29.3,152.2z"/>
<path class="st0" d="M107,61.1c0.1,0.6,0.2,1.2,0.4,1.8c0.5,3.6-0.6,6.5-4.8,7.1c-4.4,0.7-6-3.1-6.4-6.2c0-1.2,0.1-2,0.1-2.6h-2.2
	c-1.9,1.1-3.6,2.4-5.2,4c-0.8,1.9-1.9,4.6-0.2,10.7c2.9,10.9,1.6,17.5-7.1,21.2c-11.2,4.8-18.4,7.7-27.8,19.7
	c-4.6,5.6-7.1,15.2-7.4,24.7c-0.3,9.4,1.4,18.7,4.8,27.4c2,5,4.6,9.8,7.8,14.2c3-0.2,6-0.6,9-1.2c-3.3-3.9-5.3-8.8-5.6-13.9
	c-1.1-17.8,8.4-25.2,23-36.8l6.6-5.5c26.2-22.2,18.5-44.8,21.4-64.1C111.3,61.1,109.2,61.1,107,61.1z"/>
<path class="st0" d="M117.5,61.5c-0.7,4-1.2,8-1.4,12c-1.1,16.8-0.5,35.9-21.8,54.7l-6.4,5.2c-14.3,11.4-22.4,18.6-21.8,34.1
	c0.1,5,2.2,9.7,5.9,13.1c4.1-1.2,8-2.9,11.8-4.9c18.5-10.6,30.1-26.3,34.6-46.4c2.8-12.7,2.8-23,2.6-31.4c0-4.2,0.6-12.4,0.6-12.4
	c0.6-5.2,1.3-12.6,7.4-22.1c0.2-0.4,0.4-0.6,0.6-1C125.8,61.9,121.7,61.7,117.5,61.5z"/>
<path class="st0" d="M123.7,115.5c-0.6,3.1-0.7,6.5-1.1,9.8c-0.2,1.2-0.5,2.5-0.6,3.7c0,0.4-0.1,0.7-0.2,1.1
	c-4.6,21.2-16.7,37.7-36.2,48.7c-3.2,1.9-6.6,3.4-10.1,4.7c5.8,3.7,12.4,4.9,16.9,4.2c17.5-2.5,26-13.9,30.1-26.2
	c4.2-12.5,3.7-25.8,3.5-31.3c-0.6-18.5,13.6-25.3,13.6-25.3C128.6,104.3,124.9,109.1,123.7,115.5z"/>
<path class="st0" d="M112.1,183.5c-5.2,4.3-11.5,7-18.2,7.8c-7.9,1.1-16-1.1-22.2-6.1c-0.2-0.1-0.2-0.2-0.5-0.4
	c-3,0.8-6,1.4-9.1,1.7c7,7.6,16.3,11.9,28.7,12.6h0.1c8.4-3.3,15.8-8.7,21.5-15.7C112.2,183.4,112.2,183.5,112.1,183.5z"/>
<path class="st0" d="M47,196.2c0-4-0.9-8-2.8-11.5c-4.4-1.3-8.6-3.1-12.5-5.5c-2.2-1.6-4.3-3.5-6.1-5.5
	C30.3,183.2,37.8,191.1,47,196.2z"/>
<path class="st0" d="M82.7,201.5c-6.5-1.3-12.7-4-18.1-7.9c-2.7-2-5.2-4.4-7.3-7c-2.8,0-5.6-0.3-8.4-0.8c1.6,3.9,2.2,8.2,1.8,12.4
	c6.7,3.1,14,4.6,21.4,4.6c3.6,0,7.2-0.4,10.7-1.1C82.8,201.5,82.7,201.5,82.7,201.5z"/>
<path class="st0" d="M142.6,75c-1.2,4-5.2,3.5-6.4,1.3c-1.8-3.4-1.1-6,0.8-7.8c1.8-1.8,4.9-2.8,7.9-4.2h0.1c-3.5-0.6-7.2-1.1-11-1.6
	c-0.1,0.1-0.1,0.1-0.2,0.1c-0.3,0.4-0.6,0.8-1,1.2c-4.4,6.4-7.1,13.8-7.7,21.6l-0.1,1.7c-0.4,3.5-0.5,7-0.4,10.4v1.7
	c-0.1,1.4-0.1,2.9-0.1,4.2l0,0c0.1-0.6,0.1-0.7,0.1-0.5c1.7-5.6,4.9-9,9.5-10.9c5-1.9,9.8-3.7,10.1-10.9c0.1-3,0.4-6,1-7.4
	c0.7-1.6,1.9-2.9,3.5-3.6C146.3,70.2,143.6,71.2,142.6,75z"/>
<path class="st1" d="M148.4,46.7c0.4-4.8,4.9-5.6,9.4-9.7c5.6-5.4-1.8-14.3-1.8-14.3c1,6-1.8,8.3-6.8,11.9c-1.6,1-2.7,2.8-3,4.7
	c-0.1,2.4-0.3,4.7-0.7,7.1C146.4,46.4,147.4,46.5,148.4,46.7z"/>
<path class="st2" d="M148.4,46.7c0.4-4.8,4.9-5.6,9.4-9.7c5.6-5.4-1.8-14.3-1.8-14.3c1,6-1.8,8.3-6.8,11.9c-1.6,1-2.7,2.8-3,4.7
	c-0.1,2.4-0.3,4.7-0.7,7.1C146.4,46.4,147.4,46.5,148.4,46.7z"/>
<path class="st1" d="M133,38.4c-1.3,1-2.5,2-3.7,3.1c-0.8,0.8-1.7,1.6-2.4,2.4c4.9,0.4,9.7,1,14.4,1.6c2.9-5.4,4.3-11.4,2.5-21.8
	C143.8,23.7,143.4,30.7,133,38.4z"/>
<path class="st2" d="M133,38.4c-1.3,1-2.5,2-3.7,3.1c-0.8,0.8-1.7,1.6-2.4,2.4c4.9,0.4,9.7,1,14.4,1.6c2.9-5.4,4.3-11.4,2.5-21.8
	C143.8,23.7,143.4,30.7,133,38.4z"/>
<path class="st1" d="M105.4,42.9c5.6,0.1,11.2,0.2,16.7,0.7c0.1-0.2,0.3-0.4,0.5-0.6c3.6-3.8,9.2-7.2,12.2-11.5s1.8-9.7,0.6-16.2
	c-1.9-11.2,2.9-13.2,2.9-13.2s-9.5,1.3-9.2,6.7c0.2,7.3,7.8,14.2-3.6,16.3c-12.5,2.3-20.3,9-22,17.9
	C104.1,42.9,104.7,42.8,105.4,42.9z"/>
<path class="st2" d="M105.4,42.9c5.6,0.1,11.2,0.2,16.7,0.7c0.1-0.2,0.3-0.4,0.5-0.6c3.6-3.8,9.2-7.2,12.2-11.5s1.8-9.7,0.6-16.2
	c-1.9-11.2,2.9-13.2,2.9-13.2s-9.5,1.3-9.2,6.7c0.2,7.3,7.8,14.2-3.6,16.3c-12.5,2.3-20.3,9-22,17.9
	C104.1,42.9,104.7,42.8,105.4,42.9z"/>
<path class="st3" d="M105.4,45.7C53,45.3,9.5,58.7,8,75.9c-0.6,6.8,5.5,13.2,16.4,18.5c8.1,3.7,16.6,6.4,25.3,8.2
	c2-0.8,4-1.6,6.2-2.3c2.9-0.9,5.7-1.9,8.4-3.1c-14.6-2-26.4-5.4-33.7-9.4c-5.4-2.9-8.3-6.1-7.9-9.6c1-11.5,37.6-20.4,81.6-20
	c44.2,0.5,79.1,10.2,78,21.6c-0.2,3.2-3.2,6.1-8.2,8.8C165,93.4,148.8,97,129,98.8c-0.7,1-1.3,2-1.8,3.1c9-3.4,19.4,1.7,19.4,1.7
	c0.4,0.2,0.8,0.4,1.2,0.6c13.1-2.4,24.4-5.8,32.8-9.7c10-4.7,16.1-10.6,16.6-16.7C198.6,60.6,157.6,46.3,105.4,45.7z"/>
</svg>
