<?xml version="1.0" encoding="utf-8"?>
<!-- Generator: Adobe Illustrator 26.4.1, SVG Export Plug-In . SVG Version: 6.00 Build 0)  -->
<svg version="1.1" id="Layer_1" xmlns="http://www.w3.org/2000/svg" xmlns:xlink="http://www.w3.org/1999/xlink" x="0px" y="0px"
	 viewBox="0 0 200 115.1" style="enable-background:new 0 0 200 115.1;" xml:space="preserve">
<style type="text/css">
	.st0{fill:#0071CE;}
	.st1{fill:#FF4438;}
	.st2{fill:#FFFFFF;}
	.st3{fill:#FFB71B;}
	.st4{fill:#011E41;}
	.st5{fill-rule:evenodd;clip-rule:evenodd;fill:#FFFFFF;}
</style>
<g>
	<path class="st0" d="M10.3,115.1c12.3-10.9,25.6-20.7,39.5-29.4c2.7-1.4,5.5-2.8,8.2-4.1l6.1-3c1.9,2.1,3.8,4.1,5.8,6.1
		C49.1,94.5,29.2,104.7,10.3,115.1L10.3,115.1z M158.8,40.9c13.5-3,27.3-5.1,41.1-6.3c-14.7,4.5-29.7,9.5-44.9,15
		C156.3,46.8,157.6,43.9,158.8,40.9L158.8,40.9z"/>
	<path class="st1" d="M0,74c14.3-9,29.4-16.9,45-23.4c0.5,1.1,1.1,2.2,1.7,3.2c-0.9,1.8-1.8,3.6-2.6,5.4C28.9,63.9,14.2,68.8,0,74
		L0,74z M164.6,23.6c11.8-0.5,23.5-0.3,35.3,0.6c-12.2,1.7-24.6,3.7-37.2,6C163.3,28,164,25.8,164.6,23.6L164.6,23.6z"/>
	<path class="st2" d="M100,4.2c23,0,41,5.4,61.3,15.5c-10,37.5-28.2,62.7-61.3,83.2C88.1,95.8,77.4,87,68.1,76.8L80.3,71
		c1.6,0.1,3.1,0.2,4.5,0.3c0,1.8-0.6,3.6-1.8,4.9c0.6,0.7,1.3,1.4,1.9,2.2c1.9-1.8,3-4.4,2.9-7c3.9,0,7.7-0.5,11.5-1.2
		c-0.2,5.9-1,10.3-2.7,12c-0.1,0-0.1,0.1-0.1,0.1c-0.4,0.4-0.8,0.8-1.1,1.1c1.6-0.3,3.2-0.7,4.8-1.1c2-4.2,2.1-11.6,2.1-12.8
		c3.8-0.9,7.1-1.9,10.1-2.9c0.1,3.4,1.5,6.8,4.1,8c1.2-0.8,2.3-1.7,3.4-2.6c-0.7,0.1-4.8,0.4-4.8-6.3c8.8-3.3,14.6-7.4,19.6-13.3
		c1.4-3,2.4-6.2,3.2-9.4c-6.1,9.5-11.6,15.1-22.5,19.5c0.4-2.4,1-4.7,1.8-7c3.2-1.3,6.5-2.9,8.5-3.7l4.8-5c1.2-4.6,2.4-9.2,3.6-13.9
		l-3.7,1.2l4.4-4.6c0.9-3.6,1.8-7.2,2.7-10.9c-2.2,0.3-4.4,0.7-6.6,1c0.4-1.8,0.6-3.6,0.8-5.4c-1.1-0.3-2.1-0.5-3.2-0.8
		c-0.3,2.3-0.7,4.5-1.2,6.7H127c-2.2,0.3-4.3,1.2-6,2.6l0.6-1.8c-3.5,0.6-7,1.3-10.6,2l-3.5,3.7l0.1-0.3l1.1-2.9
		c-3.5,0.7-7,1.4-10.4,2.2c-0.7-4.7-1.4-8.9-2.1-12.4c-1,0.1-2,0.2-3,0.4c0.6,3.5,1.4,7.8,2.1,12.6l-2.4,0.6l-3.1,3.2
		c-2.2-2.3-6.6-0.8-9.4-0.2c-3,0.8-6.1,1.6-9.1,2.4c-0.9,0.2-1.8,0.5-2.7,0.8c-2.3-3.3-4.4-6.7-6.2-10.3l-0.3-0.7
		c-0.9,0.4-1.8,0.8-2.7,1.2l0.4,0.8c1.7,3.5,3.7,6.9,6,10.1c-3.4,1.5-6.4,3.6-8.9,6.3c0,0-4.2,4.4-4.8,5c-1.1,1.2-2,2.6-2.9,4
		c-4.6-9.4-8.2-19.3-10.6-29.5C58.9,9.6,77,4.2,100,4.2z M102.2,61l6.3-2.8l1-1c0.5,0.1,1,0.1,1.4,0c1-0.2,2-0.5,2.9-0.8
		c-0.6,2.2-1.1,4.5-1.3,6.8c-3,1.1-6.4,2.1-10.2,3C102.3,64.5,102.3,62.8,102.2,61L102.2,61z M87.6,67.6l2-0.9l5.1-4.1l1.1-3.1
		c0.7,1.5,1.1,2.1,1.9,3.6l1.7-0.7c0.1,1.6,0.1,3.2,0.1,4.7c-3.9,0.9-7.8,1.3-11.8,1.4L87.6,67.6L87.6,67.6z"/>
	<path class="st1" d="M112.3,11.9c4.8,0,9.6,0.2,14.4,0.8c3.6,0.8,7.1,1.7,10.7,2.7c2.5,8.9,2.7,18.2,0.6,27.2
		c-6.1,9.5-11.6,15.1-22.5,19.5c0.4-2.4,1-4.7,1.8-7c3.2-1.3,6.5-2.9,8.5-3.7l4.8-5c1.2-4.6,2.4-9.2,3.6-13.9l-3.7,1.2l4.4-4.6
		c0.9-3.6,1.8-7.2,2.7-10.9c-2.2,0.3-4.4,0.7-6.6,1c0.4-1.8,0.6-3.6,0.8-5.4c-1.1-0.3-2.1-0.5-3.2-0.8c-0.3,2.3-0.7,4.5-1.2,6.7H127
		c-2.2,0.3-4.3,1.2-6,2.6l0.6-1.8c-3.5,0.6-7,1.3-10.6,2l-3.5,3.7l0.1-0.3l1.1-2.9c-3.5,0.7-7,1.4-10.4,2.2
		c-0.7-4.7-1.4-8.9-2.1-12.4C101.6,12.2,107,11.9,112.3,11.9L112.3,11.9z M134.9,52c-3.4,7.6-8.5,14.3-14.8,19.7
		c-0.7,0.1-4.8,0.4-4.8-6.3C124.1,62,129.8,58,134.9,52z M116.6,74.3c-5,3.5-10.5,6.1-16.4,7.8c2-4.2,2.1-11.6,2.1-12.8
		c3.8-0.9,7.1-1.9,10.1-2.9C112.5,69.8,113.9,73.1,116.6,74.3L116.6,74.3z M95.4,83.3c-1.7,0.3-3.3,0.5-5,0.7
		c-1.9-1.8-3.7-3.7-5.5-5.6c1.9-1.8,3-4.4,2.9-7c3.9,0,7.7-0.5,11.5-1.2c-0.2,5.9-1,10.3-2.7,12c-0.1,0-0.1,0.1-0.1,0.1
		C96.1,82.7,95.8,83,95.4,83.3L95.4,83.3z M83,76.1c-1.3-1.5-2.6-3-3.8-4.6l1.2-0.6c1.6,0.1,3.1,0.2,4.5,0.3
		C84.8,73.1,84.2,74.8,83,76.1z M59.6,37.6c-1.6-4.2-3.1-8.4-4.3-12.8c1.4-0.7,2.8-1.3,4.1-1.9l0.4,0.8c1.7,3.5,3.7,6.9,6,10.1
		C63.6,34.8,61.5,36.1,59.6,37.6L59.6,37.6z M62.1,21.8c10-4.1,20.5-7,31.2-8.5c0.6,3.5,1.4,7.8,2.1,12.6L93,26.4l-3.1,3.3
		c-2.2-2.3-6.6-0.8-9.4-0.2c-3,0.8-6.1,1.6-9.1,2.4c-0.9,0.2-1.8,0.5-2.7,0.8c-2.3-3.3-4.4-6.7-6.2-10.3L62.1,21.8L62.1,21.8z
		 M102.2,61l6.3-2.8l1-1c0.5,0.1,1,0.1,1.4,0c1-0.2,2-0.5,2.9-0.8c-0.6,2.2-1.1,4.5-1.3,6.8c-3,1.1-6.4,2.1-10.2,3
		C102.3,64.5,102.3,62.8,102.2,61L102.2,61z M87.6,67.6l2-0.9l5.1-4.1l1.1-3.1c0.7,1.5,1.1,2.1,1.9,3.6l1.7-0.7
		c0.1,1.6,0.1,3.2,0.1,4.7c-3.9,0.9-7.8,1.3-11.8,1.4L87.6,67.6L87.6,67.6z"/>
	<path class="st3" d="M100.9,96.7c-9.7-6.5-18.4-14.3-26-23.2l4.2-2c1.2,1.6,2.5,3.1,3.8,4.6c0.6,0.7,1.3,1.4,1.9,2.2
		C90.5,84.4,96.7,90,103.4,95C102.6,95.5,101.8,96.1,100.9,96.7L100.9,96.7z M54.9,42.3c-2.9-6.3-5.3-12.8-7.2-19.5
		c16.7-8,34.9-12.4,53.4-12.9c8.6,0.1,17.2,1,25.6,2.7c-10.1-1.1-20.3-1-30.4,0.2c-1,0.1-2,0.2-3,0.4c-10.7,1.6-21.2,4.4-31.2,8.5
		c-0.9,0.4-1.8,0.8-2.7,1.2c-1.4,0.6-2.8,1.2-4.1,1.9c1.2,4.4,2.7,8.7,4.3,12.8c-1,0.8-1.9,1.7-2.7,2.6L54.9,42.3L54.9,42.3z"/>
	<path class="st4" d="M33.7,17.5C55.7,6.2,75,0,100,0s44.3,6.2,66.2,17.5C156,58.7,136.5,86,100,107.8C86.6,100,74.5,90.2,64.1,78.7
		l-6.1,3c-3.4,1.7-6.9,3.4-10.3,5.2c-3.9,2-8.2,5-12.6,3.8c-4.9-2.1-1.7-8-0.2-11.4c3.8-8.5,7.7-17,11.9-25.4
		c-5.1-9.6-9-19.8-11.6-30.4L33.7,17.5z M100,4.2c-23,0-41,5.4-61.4,15.5c2.5,10.2,6,20.1,10.7,29.5c0.9-1.4,1.8-2.8,2.9-4
		c0.5-0.6,4.8-5,4.8-5c2.5-2.7,5.5-4.9,8.9-6.3c-2.3-3.2-4.3-6.6-6-10.1l-0.4-0.8c0.9-0.4,1.8-0.8,2.7-1.2l0.3,0.7
		c1.8,3.6,3.8,7,6.2,10.3c0.9-0.3,1.8-0.6,2.7-0.8c3-0.8,6.1-1.6,9.1-2.4c2.8-0.7,7.2-2.2,9.4,0.2l3.1-3.3l2.4-0.6
		c-0.7-4.8-1.5-9.1-2.1-12.6c1-0.2,2-0.3,3-0.4c0.6,3.4,1.3,7.7,2.1,12.4c3.5-0.8,6.9-1.5,10.4-2.2l-1.1,2.9l-0.1,0.3l3.5-3.7
		c3.5-0.7,7-1.3,10.6-2l-0.6,1.8c1.7-1.4,3.8-2.3,6-2.6h0.3c0.5-2.2,0.9-4.5,1.2-6.7c1.1,0.2,2.1,0.5,3.2,0.8
		c-0.1,1.8-0.4,3.6-0.8,5.4c2.2-0.3,4.4-0.7,6.6-1c-0.9,3.6-1.8,7.2-2.7,10.9l-4.4,4.6l3.7-1.2c-1.2,4.6-2.4,9.2-3.6,13.9l-4.8,5
		c-2,0.8-5.3,2.4-8.5,3.7c-0.8,2.3-1.4,4.6-1.8,7c10.9-4.4,16.5-9.9,22.5-19.5c-0.8,3.2-1.8,6.4-3.2,9.4c-5,6-10.8,10-19.6,13.3
		c-0.1,6.7,4.1,6.4,4.8,6.3c-1.1,0.9-2.3,1.8-3.4,2.6c-2.6-1.2-4-4.5-4.1-8c-3,1-6.4,2-10.1,2.9c0,1.3-0.1,8.6-2.1,12.8
		c-1.6,0.4-3.2,0.8-4.8,1.1c0.3-0.3,0.7-0.6,1.1-1.1c0-0.1,0.1-0.1,0.1-0.1c1.7-1.7,2.5-6.1,2.7-12c-3.8,0.8-7.7,1.2-11.6,1.2
		c0.1,2.6-1,5.2-2.9,7c-0.7-0.7-1.3-1.4-1.9-2.2c1.2-1.3,1.9-3.1,1.8-4.9c-1.4,0-2.9-0.1-4.5-0.3l-12.3,5.8
		c9.3,10.2,20.1,19,31.9,26.1c33.2-20.5,51.4-45.7,61.3-83.2C141,9.6,122.9,4.2,100,4.2z M102.2,61c0.1,1.8,0.1,3.6,0.1,5.2
		c3.8-1,7.2-2,10.2-3c0.3-2.3,0.7-4.6,1.3-6.8c-1,0.3-1.9,0.6-2.9,0.8c-0.5,0.1-1,0.1-1.4,0l-1,1L102.2,61L102.2,61z M87.6,67.6
		l0.1,0.7c4,0,7.9-0.5,11.8-1.4c0-1.5,0-3.1-0.1-4.7L97.7,63c-0.7-1.5-1.1-2.1-1.9-3.6l-1.1,3.1l-5.1,4.1L87.6,67.6L87.6,67.6z"/>
	<path class="st5" d="M71.7,33.7c-5.2,1.4-9.8,3.6-13.5,7.7c-2,2.5-3.7,5.2-5,8.1c-4.1,8.4-8.1,16.9-11.9,25.5c-1,2.2-4,7.7-0.8,9.1
		c3.6,0.9,8.1-2.1,11.2-3.7c3.4-1.7,6.9-3.5,10.3-5.2c5.9-2.9,11.2-6.5,14.7-12.1c1.4-2.4,2.5-5,3.5-7.6c2.2-5.5,4.5-11.1,6.9-16.6
		c0.9-2.1,2.4-4.7,1.9-6.9c-1-3-6.1-1.2-8.3-0.6C77.7,32,74.7,32.8,71.7,33.7L71.7,33.7z M65.2,65.2c-2.7,1.2-5.5,2.4-8.2,3.7
		c4-9.2,8.1-18.3,12.3-27.3c2.4-0.8,4.8-1.5,7.2-2.2C72.6,47.9,68.8,56.6,65.2,65.2z M112,24.2c-3.8,5-7.5,10-11.2,15
		c1.7-4.6,3.5-9.2,5.2-13.8c-3.9,0.8-7.8,1.6-11.8,2.6c-1,2.4-2,4.7-3,7.1l2.5-0.7c-3.1,7.5-6.1,14.9-9,22.4
		c-1.2,3.1-2.4,6.1-3.6,9.1c3.9-1.9,7.8-3.7,11.8-5.5c1.8-4.9,3.6-9.9,5.4-14.8c1.7,3.3,3.3,6.7,5,10.1c2.5-1.1,5.1-2.3,7.6-3.4
		c-1.5-3.5-3.1-7.1-4.7-10.6c2.8-4.3,5.7-8.5,8.5-12.8l2.4-0.6c0.6-1.8,1.2-3.7,1.8-5.5C116.7,23.3,114.4,23.8,112,24.2L112,24.2z
		 M127.2,21.6c-2.1,0.2-4.1,1.2-5.6,2.6c-1.2,1.4-2.1,3-2.6,4.8c-1.7,5.3-3.4,10.6-5.1,15.8c-0.7,2.1-1.7,5.9,1.6,5.6
		c1.1-0.2,2.2-0.6,3.3-1.1c3.4-1.4,6.8-2.9,10.2-4.3c0.9-3.3,1.7-6.6,2.6-10c-1.8,0.6-3.6,1.1-5.4,1.7c-0.4,1.5-0.8,3-1.2,4.5
		l-3.7,1.4c1.6-5.3,3.1-10.7,4.7-16.1l3.3-0.7c-0.3,0.9-0.5,1.9-0.8,2.8l4.8-1.1c0.6-2.4,1.2-4.8,1.8-7.2
		C132.5,20.7,129.8,21.1,127.2,21.6L127.2,21.6z"/>
	<path class="st0" d="M141.5,16.7c1.6,0.5,3.1,1.1,4.6,1.6c3.8,1.4,7.1,2.8,9.9,4.2c-8.2,28.8-26.1,53.9-50.6,71.2l-2,1.4
		c-4-3-7.9-6.2-11.5-9.6l3.4-0.6c29.9-5,50.1-33.3,45.2-63.3c-0.1-0.4-0.1-0.8-0.2-1.2v-0.2v-0.2l-0.1-0.2v-0.2v-0.2v-0.2v-0.2v-0.2
		l-0.1-0.2v-0.2l-0.1-0.2v-0.2v-0.2v-0.2v-0.2c-0.2-0.6-0.3-1.2-0.4-1.7l2.2,0.7L141.5,16.7z M141.7,17c1.5,0.5,3.1,1.1,4.5,1.6
		C144.8,18.1,143.3,17.5,141.7,17z"/>
</g>
</svg>
