<?xml version="1.0" encoding="utf-8"?>
<!-- Generator: Adobe Illustrator 26.4.1, SVG Export Plug-In . SVG Version: 6.00 Build 0)  -->
<svg version="1.1"
	 id="Layer_1" xmlns:dc="http://purl.org/dc/elements/1.1/" xmlns:cc="http://creativecommons.org/ns#" xmlns:rdf="http://www.w3.org/1999/02/22-rdf-syntax-ns#"
	 xmlns="http://www.w3.org/2000/svg" xmlns:xlink="http://www.w3.org/1999/xlink" x="0px" y="0px" viewBox="0 0 104.9 116.3"
	 style="enable-background:new 0 0 104.9 116.3;" xml:space="preserve">
<style type="text/css">
	.st0{fill:#FFFFFF;}
	.st1{fill:#CF0A2C;}
</style>
<g>
	<path d="M92.3,31.2c-1.7-2.6-3.7-5-5.9-7.1c-0.9-1-1.9-1.9-3-2.7L104.9,0H42.6L18.5,24.1l-0.1,0.1c-2.2,2.2-4.1,4.6-5.9,7.1
		c-1.7,2.6-3.2,5.3-4.4,8.2c-5,12-5,25.4,0,37.4c1.2,2.9,2.7,5.6,4.4,8.1c1.7,2.6,3.7,5,5.9,7.1c0.9,1,1.9,1.9,3,2.8L0,116.3h62.3
		l24.1-24.2c4.4-4.3,7.9-9.5,10.3-15.2c5-12,5-25.4,0-37.4C95.6,36.6,94.1,33.8,92.3,31.2z"/>
	<path class="st0" d="M83.7,26.9c-0.9-1-2-1.9-2.9-2.8L54.6,50.4c1.3,0.4,2.6,1.1,3.6,2.1c3.1,3.2,3.1,8.2,0,11.4L9.6,112.4h5.7
		L61,66.8c4.7-4.7,4.8-12.3,0.1-17.1l2.8-2.8c6.3,6.3,6.2,16.4,0,22.7c0,0,0,0,0,0l0,0l-42.8,42.8h5.7l40-40
		c7.8-7.9,7.8-20.6,0.1-28.5l2.8-2.8c9.4,9.4,9.4,24.7,0,34.1l0,0l-37.1,37.1h5.7l34.3-34.3c11-11,11-28.8,0.1-39.8l2.9-2.9
		c12.5,12.6,12.5,33-0.1,45.5l-31.4,31.4h5.7l28.6-28.6c14.1-14.1,14.2-37,0.1-51.1l0,0l2.9-2.9C96.7,45.5,96.6,71,80.9,86.7
		c0,0,0,0,0,0l-25.7,25.8h5.7l22.9-22.9C101,72.2,100.9,44.2,83.7,26.9z"/>
	<path class="st1" d="M21.3,89.4c0.9,1,1.9,1.9,2.9,2.7L50.4,66c-1.3-0.4-2.6-1.1-3.6-2.1c-3.2-3.1-3.2-8.3,0-11.4l0,0L95.4,3.9
		h-5.7L44,49.6c-4.7,4.7-4.7,12.4-0.1,17.1l-2.9,2.8c-6.2-6.3-6.2-16.4,0-22.6c0,0,0.1-0.1,0.1-0.1L84,3.9h-5.7l-40,40
		c-7.8,7.9-7.9,20.6-0.1,28.5l-2.9,2.8c-9.4-9.5-9.3-24.7,0.1-34.1L72.7,3.9H67L32.6,38.3c-11,11-11,28.8-0.1,39.8l-2.9,2.9
		c-12.5-12.6-12.5-33,0.1-45.5L61.3,3.9h-5.7L27,32.6c-14.1,14.1-14.2,37-0.1,51.2L24,86.6c-15.7-15.7-15.7-41.2,0-56.9l0,0
		L49.9,3.9h-5.7l-23,23C4,44.2,4,72.2,21.3,89.4L21.3,89.4z"/>
</g>
</svg>
