<?xml version="1.0" encoding="utf-8"?>
<!-- Generator: Adobe Illustrator 26.4.1, SVG Export Plug-In . SVG Version: 6.00 Build 0)  -->
<svg version="1.1" id="Layer_1" xmlns="http://www.w3.org/2000/svg" xmlns:xlink="http://www.w3.org/1999/xlink" x="0px" y="0px"
	 viewBox="0 0 134.4 134.4" style="enable-background:new 0 0 134.4 134.4;" xml:space="preserve">
<style type="text/css">
	.st0{fill:#8C9091;}
	.st1{fill:#FFFFFF;}
	.st2{fill:#0A2240;}
	.st3{fill:#CE0E2D;}
</style>
<g>
	<path class="st0" d="M126.3,35.2c-4.1-7.6-9.7-14.3-16.3-19.8c-1.2-1-2.5-2-3.9-2.9C94.8,4.4,81.2,0,67.3,0h-0.1
		C31.5,0,2,28,0.1,63.6C0,64.8,0,65.9,0,67.1v0.1c0,9,1.8,17.9,5.3,26.2c0.4,1,0.9,2,1.3,3c3.8,7.8,9,14.8,15.4,20.6
		c1.6,1.4,3.3,2.8,5,4.1c11.6,8.7,25.7,13.3,40.1,13.3h0.1c37.1,0,67.2-30,67.2-67.1c0,0,0,0,0,0l0,0l0,0l0,0c0-9-1.8-17.9-5.3-26.1
		C128.3,39.1,127.3,37.2,126.3,35.2"/>
	<path class="st1" d="M127.5,41.8c-0.8-2-1.7-3.9-2.8-5.7c-4-7.4-9.4-13.9-15.9-19.3c-1.2-1-2.5-1.9-3.7-2.8
		C94.1,6.1,80.9,1.8,67.3,1.8h-0.1C32.4,1.8,3.7,29,1.9,63.8c-0.1,1.1-0.1,2.2-0.1,3.4v0.1c0,8.7,1.7,17.4,5.1,25.4
		c0.4,1,0.8,2,1.3,2.9c3.7,7.6,8.8,14.4,15,20.1c1.5,1.4,3.2,2.7,4.8,4c11.3,8.4,25,13,39.1,13h0c36.1,0,65.4-29.2,65.4-65.3
		c0,0,0,0,0,0l0,0l0,0l0,0C132.6,58.5,130.8,49.9,127.5,41.8L127.5,41.8z"/>
	<path class="st2" d="M55,37.2l1.5-5.5l0.4-1.3l-7-3.9c0,0-4.1-2.8-13.1,2.5C26.1,35.3,17.5,43.4,13,52c-2.7,5.2-4.5,10.7-5.5,16.5
		c0.3,11.4,3.8,22.5,10.2,31.9C16,83.4,32.5,64.8,45.3,52C49.5,47.8,52.8,42.8,55,37.2"/>
	<path class="st2" d="M97.7,29c-9.1-5.3-13.1-2.5-13.1-2.5l-7,3.9l0.4,1.3l1.5,5.5c2.2,5.5,5.6,10.5,9.7,14.7
		c12.8,12.7,29.2,31.2,27.5,48.2c6.4-9.5,10-20.7,10.2-32.3c-1-5.6-2.8-11-5.4-16C117,43.3,108.4,35.2,97.7,29"/>
	<path class="st3" d="M75.9,18.8c19.3,2,36.7,12.3,47.6,28.2c-6.1-17.4-19.9-31-37.4-36.8C82.2,11.4,78,13.8,75.9,18.8"/>
	<path class="st3" d="M58.6,18.8c-2.1-5.1-6.4-7.4-10.3-8.6c-17.6,5.9-31.4,19.6-37.5,37.1C21.7,31.2,39.2,20.8,58.6,18.8"/>
	<path class="st3" d="M62.5,18.1l4.7-7l4.7,7c1.9-5.2,4.9-8,7.9-9.6c-8.3-1.8-17-1.8-25.3,0C57.6,10.1,60.6,12.9,62.5,18.1"/>
	<path class="st2" d="M67.2,38.4c-0.7,0.5-22.7,16.3-32.4,32c-13.1,21.2-11.4,33.4-8,40.4c8.6,7.9,19.4,13.2,31,15l5.1-72.4l4.2-4.3
		l0.1-0.1l0,0l0.1,0.1l4.3,4.3l5.1,72.3h-0.1c11.7-1.8,22.5-7.1,31.2-15.1c3.3-7,4.9-19.2-8.1-40.2C89.9,54.6,67.9,38.8,67.2,38.4"
		/>
	<polygon class="st0" points="71.5,53.4 67.2,49.1 67.3,131 76.6,125.8 76.6,125.8 76.6,125.7 71.5,53.4 	"/>
	<path class="st0" d="M80,23c-2.6-0.5-5.2-0.8-7.8-1l-1.9-0.1v-0.1v-0.1l-0.8-1.5v-0.1l0,0l-2.3-4.4l-0.7,1.4L65.2,20l0,0l-0.1,0.1
		l-0.1,0.1l-0.7,1.5l-0.1,0.1l0,0L62.4,22c-2.6,0.2-5.2,0.5-7.8,1c-1.2,0.2-2.3,0.4-3.4,0.6l0,0l3.7,2l3.7,2l1.1,0.6l1.1,0.6
		L60,31.4v0.1l-0.3,1.1l-2,7.4l0,0l4.5-3.5l3.1-2.3l0.9-0.7l0.9-0.7l0,0l0,0l0,0l0,0l0,0l0,0l0.9,0.7l0.9,0.7l7.8,5.7l-2-7.4
		l-0.2-0.6l-0.2-0.6l-0.7-2.5l0.7-0.4l1.5-0.8l4.9-2.7l2.4-1.3l0,0C82.2,23.4,81.1,23.2,80,23"/>
</g>
</svg>
