<svg width="339" height="57" viewBox="0 0 339 57" fill="none" xmlns="http://www.w3.org/2000/svg">
<path d="M330.302 26.7009H338.27V31.194H330.302V39.2636H325.662V31.194H317.694V26.7009H325.662V18.6313H330.302V26.7009Z" fill="white"/>
<path d="M314.613 14.056L304.714 43.1761H298.799L288.941 14.056H293.869L301.756 37.7683L309.683 14.056H314.613Z" fill="white"/>
<path d="M285.904 18.5473H277.114V43.1743H272.474V18.5473H263.725V14.0542H285.904V18.5473Z" fill="white"/>
<path d="M69.9136 14.547C69.9136 14.2558 70.1053 14.0617 70.3928 14.0617H92.1221C92.3894 14.0617 92.6013 14.3529 92.5055 14.6049L90.5519 20.0537C90.4376 20.3636 90.2256 20.4998 89.9013 20.4998H76.6149V26.3948H87.6989C87.9661 26.3948 88.178 26.686 88.0822 26.938L86.1673 32.2897C86.053 32.6201 85.8411 32.7545 85.5167 32.7545H76.6149V42.6628C76.6149 42.954 76.4232 43.1481 76.1357 43.1481H70.3928C70.1053 43.1481 69.9136 42.954 69.9136 42.6628V14.547ZM99.0888 14.5078C99.203 14.198 99.415 14.0617 99.7394 14.0617H107.436C107.762 14.0617 107.972 14.198 108.086 14.5078L118.157 42.6049C118.253 42.8569 118.042 43.1481 117.773 43.1481H111.686C111.36 43.1481 111.17 42.9932 111.054 42.6833L109.12 37.0217H97.9774L96.0441 42.6833C95.9482 42.9932 95.7381 43.1481 95.4119 43.1481H89.4C89.1327 43.1481 88.9208 42.8569 89.0166 42.6049L99.0869 14.5078H99.0888ZM106.977 30.6788L103.551 20.6342L100.125 30.6788H106.979H106.977ZM120.971 14.547C120.971 14.2558 121.163 14.0617 121.45 14.0617H128.131C128.476 14.0617 128.686 14.1774 128.859 14.4892L138.852 31.7073V14.547C138.852 14.2558 139.044 14.0617 139.331 14.0617H144.96C145.247 14.0617 145.439 14.2558 145.439 14.547V42.6628C145.439 42.954 145.247 43.1481 144.96 43.1481H138.355C138.01 43.1481 137.8 43.0324 137.627 42.7207L127.556 25.3663V42.6628C127.556 42.954 127.365 43.1481 127.077 43.1481H121.448C121.161 43.1481 120.969 42.954 120.969 42.6628V14.547H120.971ZM161.787 36.71C166.343 36.71 169.789 33.2193 169.789 28.6049C169.789 23.9905 166.343 20.4998 161.787 20.4998H151.582C151.294 20.4998 151.103 20.3057 151.103 20.0145V14.547C151.103 14.2558 151.294 14.0617 151.582 14.0617H161.787C170.191 14.0617 176.491 20.3057 176.491 28.6049C176.491 36.9041 170.193 43.1481 161.787 43.1481H151.582C151.294 43.1481 151.103 42.954 151.103 42.6628V29.0697C151.103 27.2479 151.678 25.8311 152.691 24.8044C153.611 23.8729 155.047 23.2532 156.33 23.2532H157.325C157.612 23.2532 157.804 23.4473 157.804 23.7385V36.71H161.787ZM180.624 31.6681V14.547C180.624 14.2558 180.816 14.0617 181.104 14.0617H186.846C187.134 14.0617 187.326 14.2558 187.326 14.547V31.6681C187.326 34.9647 189.604 37.2532 192.84 37.2532C196.076 37.2532 198.354 34.9647 198.354 31.6681V14.547C198.354 14.2558 198.546 14.0617 198.834 14.0617H204.576C204.864 14.0617 205.056 14.2558 205.056 14.547V31.6681C205.056 38.8044 200.078 43.6895 192.842 43.6895C185.606 43.6895 180.628 38.8025 180.628 31.6681H180.624ZM230.132 25.3084C230.419 25.3084 230.611 25.5025 230.611 25.7937V31.1847C230.611 31.4759 230.419 31.67 230.132 31.67H217.439V36.7119H230.897C231.184 36.7119 231.376 36.906 231.376 37.1972V42.6647C231.376 42.9559 231.184 43.15 230.897 43.15H211.217C210.929 43.15 210.738 42.9559 210.738 42.6647V14.547C210.738 14.2558 210.929 14.0617 211.217 14.0617H230.897C231.184 14.0617 231.376 14.2558 231.376 14.547V20.0145C231.376 20.3057 231.184 20.4998 230.897 20.4998H217.439V25.3084H230.132ZM243.686 36.71H256.915C257.202 36.71 257.394 36.9041 257.394 37.1953V42.6628C257.394 42.954 257.202 43.1481 256.915 43.1481H237.463C237.176 43.1481 236.984 42.954 236.984 42.6628V14.547C236.984 14.2558 237.176 14.0617 237.463 14.0617H243.206C243.494 14.0617 243.686 14.2558 243.686 14.547V36.71Z" fill="white"/>
<path d="M12.6949 22.0044C16.3884 20.2721 20.2808 19.2175 24.1033 18.7545C24.5161 18.6967 24.6875 18.986 24.6451 19.3183C24.1604 22.2937 23.8324 25.3122 23.7033 28.3586C23.6757 28.7058 23.4896 28.9354 23.1044 29.0082C20.9793 29.4263 18.9115 30.0908 16.6298 31.1455C18.6829 34.7556 21.1637 38.0634 23.9024 40.8372C24.2157 41.1695 24.4019 41.5167 24.4866 42.0786C25.1999 46.7154 26.4402 51.3951 28.0953 55.8285C28.1948 56.0749 28.1948 56.2466 28.0529 56.3922C27.8962 56.5359 27.653 56.5359 27.4263 56.3922C10.8832 46.1964 0.901382 27.8975 0.72998 8.70253C0.72998 8.23959 0.886638 7.89426 1.27183 7.67773C10.0557 2.69558 19.938 0.296915 29.8628 0.513449C30.3051 0.528382 30.4617 0.918516 30.2903 1.27878C28.921 4.15345 27.7801 7.08412 26.8826 10.0167C26.783 10.3639 26.5693 10.5356 26.1988 10.5505C20.8946 10.8249 15.7322 12.0383 10.9975 14.0319C11.3403 16.7609 11.9245 19.434 12.6949 22.0044ZM31.0183 10.5804C30.6903 10.5524 30.4617 10.2481 30.5613 9.91586C31.6026 6.85452 32.8005 3.96492 34.1552 1.27878C34.3118 0.961449 34.5828 0.830782 34.9532 0.873716C42.4248 1.72678 49.4984 4.10865 55.8016 7.67586C56.1867 7.89239 56.3582 8.23959 56.3434 8.70066C56.2144 26.8708 47.2315 44.2588 32.102 54.7738C31.8164 54.9754 31.4459 54.8597 31.3169 54.5274C30.2185 51.537 29.3209 48.5055 28.6795 45.573C28.5947 45.1828 28.6795 44.8804 28.9781 44.649C38.1324 37.341 44.5499 26.4359 46.0906 14.03C41.4278 12.0812 36.3797 10.8679 31.0183 10.5785V10.5804Z" fill="white"/>
</svg>
