<svg width="144" height="24" viewBox="0 0 144 24" fill="none" xmlns="http://www.w3.org/2000/svg">
<path d="M140.601 11.229H144V13.1546H140.601V16.613H138.621V13.1546H135.222V11.229H138.621V7.77056H140.601V11.229Z" fill="#1493FF"/>
<path d="M133.907 5.80974L129.684 18.2898H127.161L122.956 5.80974H125.058L128.422 15.9721L131.804 5.80974H133.907Z" fill="#1493FF"/>
<path d="M121.66 7.73456H117.91V18.289H115.93V7.73456H112.198V5.80895H121.66V7.73456Z" fill="#1493FF"/>
<path d="M29.5149 6.02016C29.5149 5.89536 29.5966 5.81216 29.7193 5.81216H38.9894C39.1034 5.81216 39.1938 5.93696 39.1529 6.04496L38.3195 8.38016C38.2707 8.51296 38.1803 8.57136 38.0419 8.57136H32.3737V11.0978H37.1023C37.2164 11.0978 37.3068 11.2226 37.2659 11.3306L36.449 13.6242C36.4002 13.7658 36.3098 13.8234 36.1714 13.8234H32.3737V18.0698C32.3737 18.1946 32.292 18.2778 32.1693 18.2778H29.7193C29.5966 18.2778 29.5149 18.1946 29.5149 18.0698V6.02016ZM41.9615 6.00336C42.0102 5.87056 42.1006 5.81216 42.239 5.81216H45.5225C45.6616 5.81216 45.7513 5.87056 45.8 6.00336L50.0962 18.045C50.1371 18.153 50.0474 18.2778 49.9326 18.2778H47.3356C47.1964 18.2778 47.1154 18.2114 47.0659 18.0786L46.2411 15.6522H41.4874L40.6626 18.0786C40.6217 18.2114 40.532 18.2778 40.3929 18.2778H37.8281C37.7141 18.2778 37.6236 18.153 37.6645 18.045L41.9607 6.00336H41.9615ZM45.3267 12.9338L43.865 8.62896L42.4034 12.9338H45.3275H45.3267ZM51.2968 6.02016C51.2968 5.89536 51.3786 5.81216 51.5012 5.81216H54.3515C54.4985 5.81216 54.5881 5.86176 54.662 5.99536L58.9252 13.3746V6.02016C58.9252 5.89536 59.0069 5.81216 59.1296 5.81216H61.5309C61.6535 5.81216 61.7353 5.89536 61.7353 6.02016V18.0698C61.7353 18.1946 61.6535 18.2778 61.5309 18.2778H58.7129C58.5659 18.2778 58.4762 18.2282 58.4023 18.0946L54.1061 10.657V18.0698C54.1061 18.1946 54.0244 18.2778 53.9017 18.2778H51.5005C51.3778 18.2778 51.296 18.1946 51.296 18.0698V6.02016H51.2968ZM68.7095 15.5186C70.6531 15.5186 72.1234 14.0226 72.1234 12.045C72.1234 10.0674 70.6531 8.57136 68.7095 8.57136H64.3559C64.2333 8.57136 64.1515 8.48816 64.1515 8.36336V6.02016C64.1515 5.89536 64.2333 5.81216 64.3559 5.81216H68.7095C72.2949 5.81216 74.9823 8.48816 74.9823 12.045C74.9823 15.6018 72.2956 18.2778 68.7095 18.2778H64.3559C64.2333 18.2778 64.1515 18.1946 64.1515 18.0698V12.2442C64.1515 11.4634 64.3968 10.8562 64.8293 10.4162C65.2216 10.017 65.8341 9.75136 66.3813 9.75136H66.8059C66.9286 9.75136 67.0104 9.83456 67.0104 9.95936V15.5186H68.7095ZM76.7459 13.3578V6.02016C76.7459 5.89536 76.8277 5.81216 76.9503 5.81216H79.4003C79.523 5.81216 79.6048 5.89536 79.6048 6.02016V13.3578C79.6048 14.7706 80.5766 15.7514 81.9573 15.7514C83.338 15.7514 84.3098 14.7706 84.3098 13.3578V6.02016C84.3098 5.89536 84.3916 5.81216 84.5142 5.81216H86.9642C87.0869 5.81216 87.1687 5.89536 87.1687 6.02016V13.3578C87.1687 16.4162 85.045 18.5098 81.9581 18.5098C78.8712 18.5098 76.7475 16.4154 76.7475 13.3578H76.7459ZM97.8666 10.6322C97.9893 10.6322 98.071 10.7154 98.071 10.8402V13.1506C98.071 13.2754 97.9893 13.3586 97.8666 13.3586H92.4516V15.5194H98.1929C98.3156 15.5194 98.3973 15.6026 98.3973 15.7274V18.0706C98.3973 18.1954 98.3156 18.2786 98.1929 18.2786H89.7971C89.6745 18.2786 89.5927 18.1954 89.5927 18.0706V6.02016C89.5927 5.89536 89.6745 5.81216 89.7971 5.81216H98.1929C98.3156 5.81216 98.3973 5.89536 98.3973 6.02016V8.36336C98.3973 8.48816 98.3156 8.57136 98.1929 8.57136H92.4516V10.6322H97.8666ZM103.649 15.5186H109.293C109.415 15.5186 109.497 15.6018 109.497 15.7266V18.0698C109.497 18.1946 109.415 18.2778 109.293 18.2778H100.994C100.872 18.2778 100.79 18.1946 100.79 18.0698V6.02016C100.79 5.89536 100.872 5.81216 100.994 5.81216H103.444C103.567 5.81216 103.649 5.89536 103.649 6.02016V15.5186Z" fill="#1493FF"/>
<path d="M5.10444 9.21618C6.68012 8.47378 8.34072 8.02178 9.97143 7.82338C10.1476 7.79858 10.2207 7.92258 10.2026 8.06498C9.99581 9.34018 9.85585 10.6338 9.80081 11.9394C9.78902 12.0882 9.70961 12.1866 9.54528 12.2178C8.63871 12.397 7.75652 12.6818 6.78312 13.1338C7.65902 14.681 8.71734 16.0986 9.88573 17.2874C10.0194 17.4298 10.0988 17.5786 10.135 17.8194C10.4393 19.8066 10.9684 21.8122 11.6745 23.7122C11.7169 23.8178 11.7169 23.8914 11.6564 23.9538C11.5896 24.0154 11.4858 24.0154 11.3891 23.9538C4.33154 19.5842 0.0731228 11.7418 0 3.51537C0 3.31697 0.0668327 3.16897 0.231162 3.07617C3.97851 0.940965 8.19447 -0.0870364 12.4285 0.00576372C12.6172 0.0121637 12.6841 0.179364 12.6109 0.333764C12.0267 1.56577 11.54 2.82177 11.1571 4.07857C11.1147 4.22737 11.0235 4.30097 10.8654 4.30737C8.60254 4.42497 6.40021 4.94497 4.38029 5.79937C4.52654 6.96897 4.77578 8.11458 5.10444 9.21618ZM12.9215 4.32017C12.7816 4.30817 12.6841 4.17777 12.7265 4.03537C13.1708 2.72337 13.6818 1.48497 14.2597 0.333764C14.3266 0.197764 14.4421 0.141764 14.6002 0.160164C17.7877 0.525764 20.8054 1.54657 23.4944 3.07537C23.6588 3.16817 23.7319 3.31697 23.7256 3.51457C23.6706 11.3018 19.8383 18.7538 13.3838 23.2602C13.262 23.3466 13.1039 23.297 13.0489 23.1546C12.5803 21.873 12.1974 20.5738 11.9237 19.317C11.8876 19.1498 11.9237 19.0202 12.0511 18.921C15.9565 15.789 18.6943 11.1154 19.3516 5.79857C17.3623 4.96337 15.2088 4.44337 12.9215 4.31937V4.32017Z" fill="#1493FF"/>
</svg>
